<?xml version="1.0" encoding="UTF-8" standalone="no"?>
<!-- Created with Inkscape (http://www.inkscape.org/) -->

<svg
   width="210mm"
   height="297mm"
   viewBox="0 0 210 297"
   version="1.1"
   id="svg1"
   inkscape:version="1.3.2 (091e20e, 2023-11-25, custom)"
   sodipodi:docname="layout.svg"
   xmlns:inkscape="http://www.inkscape.org/namespaces/inkscape"
   xmlns:sodipodi="http://sodipodi.sourceforge.net/DTD/sodipodi-0.dtd"
   xmlns="http://www.w3.org/2000/svg"
   xmlns:svg="http://www.w3.org/2000/svg">
  <sodipodi:namedview
     id="namedview1"
     pagecolor="#ffffff"
     bordercolor="#000000"
     borderopacity="0.25"
     inkscape:showpageshadow="2"
     inkscape:pageopacity="0.0"
     inkscape:pagecheckerboard="0"
     inkscape:deskcolor="#d1d1d1"
     inkscape:document-units="mm"
     inkscape:zoom="2.0485264"
     inkscape:cx="235.53516"
     inkscape:cy="381.00559"
     inkscape:window-width="1600"
     inkscape:window-height="837"
     inkscape:window-x="-8"
     inkscape:window-y="-8"
     inkscape:window-maximized="1"
     inkscape:current-layer="g1" />
  <defs
     id="defs1">
    <inkscape:path-effect
       effect="tiling"
       id="path-effect86"
       is_visible="true"
       lpeversion="1"
       unit="px"
       seed="1;1"
       lpesatellites="#g90 | #g95 | #g100 | #g105 | #g110 | #g115 | #g120 | #g125 | #g130 | #g135 | #g140 | #g145 | #g150 | #g155 | #g160 | #g165 | #g170"
       num_rows="3"
       num_cols="6"
       gapx="6"
       gapy="6"
       offset="0"
       offset_type="false"
       scale="0"
       rotate="0"
       mirrorrowsx="false"
       mirrorrowsy="false"
       mirrorcolsx="false"
       mirrorcolsy="false"
       mirrortrans="false"
       shrink_interp="false"
       split_items="true"
       link_styles="false"
       interpolate_scalex="false"
       interpolate_scaley="true"
       interpolate_rotatex="false"
       interpolate_rotatey="true"
       random_scale="false"
       random_rotate="false"
       random_gap_y="false"
       random_gap_x="false"
       transformorigin="" />
  </defs>
  <g
     inkscape:label="Layer 1"
     inkscape:groupmode="layer"
     id="layer1">
    <g
       id="g1"
       inkscape:label="iceberg"
       inkscape:path-effect="#path-effect86"
       inkscape:export-filename="layout.png"
       inkscape:export-xdpi="600"
       inkscape:export-ydpi="600">
      <path
         style="fill:none;fill-rule:evenodd;stroke:#000000;stroke-width:0.3;stroke-linecap:round;stroke-dasharray:0.3, 0.6;stroke-dashoffset:0;stroke-opacity:1"
         id="rect1"
         width="10.138894"
         height="10.138894"
         x="38.344891"
         y="68.366257"
         ry="2.5000002"
         rx="2.5000002"
         sodipodi:type="rect"
         d="m 40.844891,68.366257 h 5.138893 c 1.385001,0 2.500001,1.115 2.500001,2.5 v 5.138894 c 0,1.385 -1.115,2.5 -2.500001,2.5 h -5.138893 c -1.385,0 -2.5,-1.115 -2.5,-2.5 v -5.138894 c 0,-1.385 1.115,-2.5 2.5,-2.5 z"
         inkscape:export-filename="..\layout.png"
         inkscape:export-xdpi="600"
         inkscape:export-ydpi="600" />
      <circle
         style="fill:#e73f1e;fill-opacity:1;stroke:#000000;stroke-width:0.2;stroke-linecap:square;stroke-miterlimit:0;stroke-dasharray:none;stroke-opacity:1"
         id="path1"
         cx="41.162422"
         cy="71.162422"
         r="1.1624209"
         d="m 42.324843,71.162422 c 0,0.641987 -0.520434,1.162421 -1.162421,1.162421 -0.641987,0 -1.162421,-0.520434 -1.162421,-1.162421 0,-0.641987 0.520434,-1.162421 1.162421,-1.162421 0.641987,0 1.162421,0.520434 1.162421,1.162421 z" />
      <circle
         style="fill:none;fill-opacity:1;stroke:#000000;stroke-width:0.2;stroke-linecap:square;stroke-miterlimit:0;stroke-dasharray:none;stroke-opacity:1"
         id="path1-7"
         cx="41.162422"
         cy="75.662422"
         r="1.1624209"
         d="m 42.324843,75.662422 c 0,0.641987 -0.520434,1.162421 -1.162421,1.162421 -0.641987,0 -1.162421,-0.520434 -1.162421,-1.162421 0,-0.641987 0.520434,-1.162421 1.162421,-1.162421 0.641987,0 1.162421,0.520434 1.162421,1.162421 z" />
      <circle
         style="fill:none;fill-opacity:1;stroke:#000000;stroke-width:0.2;stroke-linecap:square;stroke-miterlimit:0;stroke-dasharray:none;stroke-opacity:1"
         id="path1-7-9"
         cx="45.662422"
         cy="75.662422"
         r="1.1624209"
         d="m 46.824843,75.662422 c 0,0.641987 -0.520434,1.162421 -1.162421,1.162421 -0.641987,0 -1.162421,-0.520434 -1.162421,-1.162421 0,-0.641987 0.520434,-1.162421 1.162421,-1.162421 0.641987,0 1.162421,0.520434 1.162421,1.162421 z" />
      <circle
         style="fill:#e73f1e;fill-opacity:1;stroke:#000000;stroke-width:0.2;stroke-linecap:square;stroke-miterlimit:0;stroke-dasharray:none;stroke-opacity:1"
         id="path1-4"
         cx="45.662422"
         cy="71.162422"
         r="1.1624209"
         d="m 46.824843,71.162422 c 0,0.641987 -0.520434,1.162421 -1.162421,1.162421 -0.641987,0 -1.162421,-0.520434 -1.162421,-1.162421 0,-0.641987 0.520434,-1.162421 1.162421,-1.162421 0.641987,0 1.162421,0.520434 1.162421,1.162421 z" />
    </g>
    <g
       id="g90"
       transform="translate(11.726394)">
      <path
         style="fill:none;fill-rule:evenodd;stroke:#000000;stroke-width:0.3;stroke-linecap:round;stroke-dasharray:0.3, 0.6;stroke-dashoffset:0;stroke-opacity:1"
         id="path86"
         d="m 40.844891,68.366257 h 5.138893 c 1.385001,0 2.500001,1.115 2.500001,2.5 v 5.138894 c 0,1.385 -1.115,2.5 -2.500001,2.5 h -5.138893 c -1.385,0 -2.5,-1.115 -2.5,-2.5 v -5.138894 c 0,-1.385 1.115,-2.5 2.5,-2.5 z" />
      <path
         style="fill:none;fill-opacity:1;stroke:#000000;stroke-width:0.2;stroke-linecap:square;stroke-miterlimit:0;stroke-dasharray:none;stroke-opacity:1"
         id="path87"
         d="m 42.324843,71.162422 c 0,0.641987 -0.520434,1.162421 -1.162421,1.162421 -0.641987,0 -1.162421,-0.520434 -1.162421,-1.162421 0,-0.641987 0.520434,-1.162421 1.162421,-1.162421 0.641987,0 1.162421,0.520434 1.162421,1.162421 z" />
      <path
         style="fill:none;fill-opacity:1;stroke:#000000;stroke-width:0.2;stroke-linecap:square;stroke-miterlimit:0;stroke-dasharray:none;stroke-opacity:1"
         id="path88"
         d="m 42.324843,75.662422 c 0,0.641987 -0.520434,1.162421 -1.162421,1.162421 -0.641987,0 -1.162421,-0.520434 -1.162421,-1.162421 0,-0.641987 0.520434,-1.162421 1.162421,-1.162421 0.641987,0 1.162421,0.520434 1.162421,1.162421 z" />
      <path
         style="fill:none;fill-opacity:1;stroke:#000000;stroke-width:0.2;stroke-linecap:square;stroke-miterlimit:0;stroke-dasharray:none;stroke-opacity:1"
         id="path89"
         d="m 46.824843,75.662422 c 0,0.641987 -0.520434,1.162421 -1.162421,1.162421 -0.641987,0 -1.162421,-0.520434 -1.162421,-1.162421 0,-0.641987 0.520434,-1.162421 1.162421,-1.162421 0.641987,0 1.162421,0.520434 1.162421,1.162421 z" />
      <path
         style="fill:none;fill-opacity:1;stroke:#000000;stroke-width:0.2;stroke-linecap:square;stroke-miterlimit:0;stroke-dasharray:none;stroke-opacity:1"
         id="path90"
         d="m 46.824843,71.162422 c 0,0.641987 -0.520434,1.162421 -1.162421,1.162421 -0.641987,0 -1.162421,-0.520434 -1.162421,-1.162421 0,-0.641987 0.520434,-1.162421 1.162421,-1.162421 0.641987,0 1.162421,0.520434 1.162421,1.162421 z" />
    </g>
    <g
       id="g95"
       transform="translate(23.452788)">
      <path
         style="fill:none;fill-rule:evenodd;stroke:#000000;stroke-width:0.3;stroke-linecap:round;stroke-dasharray:0.3, 0.6;stroke-dashoffset:0;stroke-opacity:1"
         id="path91"
         d="m 40.844891,68.366257 h 5.138893 c 1.385001,0 2.500001,1.115 2.500001,2.5 v 5.138894 c 0,1.385 -1.115,2.5 -2.500001,2.5 h -5.138893 c -1.385,0 -2.5,-1.115 -2.5,-2.5 v -5.138894 c 0,-1.385 1.115,-2.5 2.5,-2.5 z" />
      <path
         style="fill:none;fill-opacity:1;stroke:#000000;stroke-width:0.2;stroke-linecap:square;stroke-miterlimit:0;stroke-dasharray:none;stroke-opacity:1"
         id="path92"
         d="m 42.324843,71.162422 c 0,0.641987 -0.520434,1.162421 -1.162421,1.162421 -0.641987,0 -1.162421,-0.520434 -1.162421,-1.162421 0,-0.641987 0.520434,-1.162421 1.162421,-1.162421 0.641987,0 1.162421,0.520434 1.162421,1.162421 z" />
      <path
         style="fill:none;fill-opacity:1;stroke:#000000;stroke-width:0.2;stroke-linecap:square;stroke-miterlimit:0;stroke-dasharray:none;stroke-opacity:1"
         id="path93"
         d="m 42.324843,75.662422 c 0,0.641987 -0.520434,1.162421 -1.162421,1.162421 -0.641987,0 -1.162421,-0.520434 -1.162421,-1.162421 0,-0.641987 0.520434,-1.162421 1.162421,-1.162421 0.641987,0 1.162421,0.520434 1.162421,1.162421 z" />
      <path
         style="fill:none;fill-opacity:1;stroke:#000000;stroke-width:0.2;stroke-linecap:square;stroke-miterlimit:0;stroke-dasharray:none;stroke-opacity:1"
         id="path94"
         d="m 46.824843,75.662422 c 0,0.641987 -0.520434,1.162421 -1.162421,1.162421 -0.641987,0 -1.162421,-0.520434 -1.162421,-1.162421 0,-0.641987 0.520434,-1.162421 1.162421,-1.162421 0.641987,0 1.162421,0.520434 1.162421,1.162421 z" />
      <path
         style="fill:none;fill-opacity:1;stroke:#000000;stroke-width:0.2;stroke-linecap:square;stroke-miterlimit:0;stroke-dasharray:none;stroke-opacity:1"
         id="path95"
         d="m 46.824843,71.162422 c 0,0.641987 -0.520434,1.162421 -1.162421,1.162421 -0.641987,0 -1.162421,-0.520434 -1.162421,-1.162421 0,-0.641987 0.520434,-1.162421 1.162421,-1.162421 0.641987,0 1.162421,0.520434 1.162421,1.162421 z" />
    </g>
    <g
       id="g100"
       transform="translate(35.179182)">
      <path
         style="fill:none;fill-rule:evenodd;stroke:#000000;stroke-width:0.3;stroke-linecap:round;stroke-dasharray:0.3, 0.6;stroke-dashoffset:0;stroke-opacity:1"
         id="path96"
         d="m 40.844891,68.366257 h 5.138893 c 1.385001,0 2.500001,1.115 2.500001,2.5 v 5.138894 c 0,1.385 -1.115,2.5 -2.500001,2.5 h -5.138893 c -1.385,0 -2.5,-1.115 -2.5,-2.5 v -5.138894 c 0,-1.385 1.115,-2.5 2.5,-2.5 z" />
      <path
         style="fill:none;fill-opacity:1;stroke:#000000;stroke-width:0.2;stroke-linecap:square;stroke-miterlimit:0;stroke-dasharray:none;stroke-opacity:1"
         id="path97"
         d="m 42.324843,71.162422 c 0,0.641987 -0.520434,1.162421 -1.162421,1.162421 -0.641987,0 -1.162421,-0.520434 -1.162421,-1.162421 0,-0.641987 0.520434,-1.162421 1.162421,-1.162421 0.641987,0 1.162421,0.520434 1.162421,1.162421 z" />
      <path
         style="fill:#3969ac;fill-opacity:1;stroke:#000000;stroke-width:0.2;stroke-linecap:square;stroke-miterlimit:0;stroke-dasharray:none;stroke-opacity:1"
         id="path98"
         d="m 42.324843,75.662422 c 0,0.641987 -0.520434,1.162421 -1.162421,1.162421 -0.641987,0 -1.162421,-0.520434 -1.162421,-1.162421 0,-0.641987 0.520434,-1.162421 1.162421,-1.162421 0.641987,0 1.162421,0.520434 1.162421,1.162421 z" />
      <path
         style="fill:none;fill-opacity:1;stroke:#000000;stroke-width:0.2;stroke-linecap:square;stroke-miterlimit:0;stroke-dasharray:none;stroke-opacity:1"
         id="path99"
         d="m 46.824843,75.662422 c 0,0.641987 -0.520434,1.162421 -1.162421,1.162421 -0.641987,0 -1.162421,-0.520434 -1.162421,-1.162421 0,-0.641987 0.520434,-1.162421 1.162421,-1.162421 0.641987,0 1.162421,0.520434 1.162421,1.162421 z" />
      <path
         style="fill:#3969ac;fill-opacity:1;stroke:#000000;stroke-width:0.2;stroke-linecap:square;stroke-miterlimit:0;stroke-dasharray:none;stroke-opacity:1"
         id="path100"
         d="m 46.824843,71.162422 c 0,0.641987 -0.520434,1.162421 -1.162421,1.162421 -0.641987,0 -1.162421,-0.520434 -1.162421,-1.162421 0,-0.641987 0.520434,-1.162421 1.162421,-1.162421 0.641987,0 1.162421,0.520434 1.162421,1.162421 z" />
    </g>
    <g
       id="g105"
       transform="translate(46.905576)">
      <path
         style="fill:none;fill-rule:evenodd;stroke:#000000;stroke-width:0.3;stroke-linecap:round;stroke-dasharray:0.3, 0.6;stroke-dashoffset:0;stroke-opacity:1"
         id="path101"
         d="m 40.844891,68.366257 h 5.138893 c 1.385001,0 2.500001,1.115 2.500001,2.5 v 5.138894 c 0,1.385 -1.115,2.5 -2.500001,2.5 h -5.138893 c -1.385,0 -2.5,-1.115 -2.5,-2.5 v -5.138894 c 0,-1.385 1.115,-2.5 2.5,-2.5 z" />
      <path
         style="fill:none;fill-opacity:1;stroke:#000000;stroke-width:0.2;stroke-linecap:square;stroke-miterlimit:0;stroke-dasharray:none;stroke-opacity:1"
         id="path102"
         d="m 42.324843,71.162422 c 0,0.641987 -0.520434,1.162421 -1.162421,1.162421 -0.641987,0 -1.162421,-0.520434 -1.162421,-1.162421 0,-0.641987 0.520434,-1.162421 1.162421,-1.162421 0.641987,0 1.162421,0.520434 1.162421,1.162421 z" />
      <path
         style="fill:none;fill-opacity:1;stroke:#000000;stroke-width:0.2;stroke-linecap:square;stroke-miterlimit:0;stroke-dasharray:none;stroke-opacity:1"
         id="path103"
         d="m 42.324843,75.662422 c 0,0.641987 -0.520434,1.162421 -1.162421,1.162421 -0.641987,0 -1.162421,-0.520434 -1.162421,-1.162421 0,-0.641987 0.520434,-1.162421 1.162421,-1.162421 0.641987,0 1.162421,0.520434 1.162421,1.162421 z" />
      <path
         style="fill:none;fill-opacity:1;stroke:#000000;stroke-width:0.2;stroke-linecap:square;stroke-miterlimit:0;stroke-dasharray:none;stroke-opacity:1"
         id="path104"
         d="m 46.824843,75.662422 c 0,0.641987 -0.520434,1.162421 -1.162421,1.162421 -0.641987,0 -1.162421,-0.520434 -1.162421,-1.162421 0,-0.641987 0.520434,-1.162421 1.162421,-1.162421 0.641987,0 1.162421,0.520434 1.162421,1.162421 z" />
      <path
         style="fill:none;fill-opacity:1;stroke:#000000;stroke-width:0.2;stroke-linecap:square;stroke-miterlimit:0;stroke-dasharray:none;stroke-opacity:1"
         id="path105"
         d="m 46.824843,71.162422 c 0,0.641987 -0.520434,1.162421 -1.162421,1.162421 -0.641987,0 -1.162421,-0.520434 -1.162421,-1.162421 0,-0.641987 0.520434,-1.162421 1.162421,-1.162421 0.641987,0 1.162421,0.520434 1.162421,1.162421 z" />
    </g>
    <g
       id="g110"
       transform="translate(58.63197)">
      <path
         style="fill:none;fill-rule:evenodd;stroke:#000000;stroke-width:0.3;stroke-linecap:round;stroke-dasharray:0.3, 0.6;stroke-dashoffset:0;stroke-opacity:1"
         id="path106"
         d="m 40.844891,68.366257 h 5.138893 c 1.385001,0 2.500001,1.115 2.500001,2.5 v 5.138894 c 0,1.385 -1.115,2.5 -2.500001,2.5 h -5.138893 c -1.385,0 -2.5,-1.115 -2.5,-2.5 v -5.138894 c 0,-1.385 1.115,-2.5 2.5,-2.5 z" />
      <path
         style="fill:none;fill-opacity:1;stroke:#000000;stroke-width:0.2;stroke-linecap:square;stroke-miterlimit:0;stroke-dasharray:none;stroke-opacity:1"
         id="path107"
         d="m 42.324843,71.162422 c 0,0.641987 -0.520434,1.162421 -1.162421,1.162421 -0.641987,0 -1.162421,-0.520434 -1.162421,-1.162421 0,-0.641987 0.520434,-1.162421 1.162421,-1.162421 0.641987,0 1.162421,0.520434 1.162421,1.162421 z" />
      <path
         style="fill:none;fill-opacity:1;stroke:#000000;stroke-width:0.2;stroke-linecap:square;stroke-miterlimit:0;stroke-dasharray:none;stroke-opacity:1"
         id="path108"
         d="m 42.324843,75.662422 c 0,0.641987 -0.520434,1.162421 -1.162421,1.162421 -0.641987,0 -1.162421,-0.520434 -1.162421,-1.162421 0,-0.641987 0.520434,-1.162421 1.162421,-1.162421 0.641987,0 1.162421,0.520434 1.162421,1.162421 z" />
      <path
         style="fill:none;fill-opacity:1;stroke:#000000;stroke-width:0.2;stroke-linecap:square;stroke-miterlimit:0;stroke-dasharray:none;stroke-opacity:1"
         id="path109"
         d="m 46.824843,75.662422 c 0,0.641987 -0.520434,1.162421 -1.162421,1.162421 -0.641987,0 -1.162421,-0.520434 -1.162421,-1.162421 0,-0.641987 0.520434,-1.162421 1.162421,-1.162421 0.641987,0 1.162421,0.520434 1.162421,1.162421 z" />
      <path
         style="fill:none;fill-opacity:1;stroke:#000000;stroke-width:0.2;stroke-linecap:square;stroke-miterlimit:0;stroke-dasharray:none;stroke-opacity:1"
         id="path110"
         d="m 46.824843,71.162422 c 0,0.641987 -0.520434,1.162421 -1.162421,1.162421 -0.641987,0 -1.162421,-0.520434 -1.162421,-1.162421 0,-0.641987 0.520434,-1.162421 1.162421,-1.162421 0.641987,0 1.162421,0.520434 1.162421,1.162421 z" />
    </g>
    <g
       id="g115"
       transform="translate(0,11.726394)">
      <path
         style="fill:none;fill-rule:evenodd;stroke:#000000;stroke-width:0.3;stroke-linecap:round;stroke-dasharray:0.3, 0.6;stroke-dashoffset:0;stroke-opacity:1"
         id="path111"
         d="m 40.844891,68.366257 h 5.138893 c 1.385001,0 2.500001,1.115 2.500001,2.5 v 5.138894 c 0,1.385 -1.115,2.5 -2.500001,2.5 h -5.138893 c -1.385,0 -2.5,-1.115 -2.5,-2.5 v -5.138894 c 0,-1.385 1.115,-2.5 2.5,-2.5 z" />
      <path
         style="fill:none;fill-opacity:1;stroke:#000000;stroke-width:0.2;stroke-linecap:square;stroke-miterlimit:0;stroke-dasharray:none;stroke-opacity:1"
         id="path112"
         d="m 42.324843,71.162422 c 0,0.641987 -0.520434,1.162421 -1.162421,1.162421 -0.641987,0 -1.162421,-0.520434 -1.162421,-1.162421 0,-0.641987 0.520434,-1.162421 1.162421,-1.162421 0.641987,0 1.162421,0.520434 1.162421,1.162421 z" />
      <path
         style="fill:none;fill-opacity:1;stroke:#000000;stroke-width:0.2;stroke-linecap:square;stroke-miterlimit:0;stroke-dasharray:none;stroke-opacity:1"
         id="path113"
         d="m 42.324843,75.662422 c 0,0.641987 -0.520434,1.162421 -1.162421,1.162421 -0.641987,0 -1.162421,-0.520434 -1.162421,-1.162421 0,-0.641987 0.520434,-1.162421 1.162421,-1.162421 0.641987,0 1.162421,0.520434 1.162421,1.162421 z" />
      <path
         style="fill:none;fill-opacity:1;stroke:#000000;stroke-width:0.2;stroke-linecap:square;stroke-miterlimit:0;stroke-dasharray:none;stroke-opacity:1"
         id="path114"
         d="m 46.824843,75.662422 c 0,0.641987 -0.520434,1.162421 -1.162421,1.162421 -0.641987,0 -1.162421,-0.520434 -1.162421,-1.162421 0,-0.641987 0.520434,-1.162421 1.162421,-1.162421 0.641987,0 1.162421,0.520434 1.162421,1.162421 z" />
      <path
         style="fill:none;fill-opacity:1;stroke:#000000;stroke-width:0.2;stroke-linecap:square;stroke-miterlimit:0;stroke-dasharray:none;stroke-opacity:1"
         id="path115"
         d="m 46.824843,71.162422 c 0,0.641987 -0.520434,1.162421 -1.162421,1.162421 -0.641987,0 -1.162421,-0.520434 -1.162421,-1.162421 0,-0.641987 0.520434,-1.162421 1.162421,-1.162421 0.641987,0 1.162421,0.520434 1.162421,1.162421 z" />
    </g>
    <g
       id="g120"
       transform="translate(11.726394,11.726394)"
       inkscape:label="g120">
      <path
         style="fill:none;fill-rule:evenodd;stroke:#000000;stroke-width:0.3;stroke-linecap:round;stroke-dasharray:0.3, 0.6;stroke-dashoffset:0;stroke-opacity:1"
         id="path116"
         d="m 40.844891,68.366257 h 5.138893 c 1.385001,0 2.500001,1.115 2.500001,2.5 v 5.138894 c 0,1.385 -1.115,2.5 -2.500001,2.5 h -5.138893 c -1.385,0 -2.5,-1.115 -2.5,-2.5 v -5.138894 c 0,-1.385 1.115,-2.5 2.5,-2.5 z" />
      <path
         style="fill:none;fill-opacity:1;stroke:#000000;stroke-width:0.2;stroke-linecap:square;stroke-miterlimit:0;stroke-dasharray:none;stroke-opacity:1"
         id="path117"
         d="m 42.324843,71.162422 c 0,0.641987 -0.520434,1.162421 -1.162421,1.162421 -0.641987,0 -1.162421,-0.520434 -1.162421,-1.162421 0,-0.641987 0.520434,-1.162421 1.162421,-1.162421 0.641987,0 1.162421,0.520434 1.162421,1.162421 z" />
      <path
         style="fill:none;fill-opacity:1;stroke:#000000;stroke-width:0.2;stroke-linecap:square;stroke-miterlimit:0;stroke-dasharray:none;stroke-opacity:1"
         id="path118"
         d="m 42.324843,75.662422 c 0,0.641987 -0.520434,1.162421 -1.162421,1.162421 -0.641987,0 -1.162421,-0.520434 -1.162421,-1.162421 0,-0.641987 0.520434,-1.162421 1.162421,-1.162421 0.641987,0 1.162421,0.520434 1.162421,1.162421 z" />
      <path
         style="fill:#3969ac;fill-opacity:1;stroke:#000000;stroke-width:0.2;stroke-linecap:square;stroke-miterlimit:0;stroke-dasharray:none;stroke-opacity:1"
         id="path119"
         d="m 46.824843,75.662422 c 0,0.641987 -0.520434,1.162421 -1.162421,1.162421 -0.641987,0 -1.162421,-0.520434 -1.162421,-1.162421 0,-0.641987 0.520434,-1.162421 1.162421,-1.162421 0.641987,0 1.162421,0.520434 1.162421,1.162421 z" />
      <path
         style="fill:#3969ac;fill-opacity:1;stroke:#000000;stroke-width:0.2;stroke-linecap:square;stroke-miterlimit:0;stroke-dasharray:none;stroke-opacity:1"
         id="path120"
         d="m 46.824843,71.162422 c 0,0.641987 -0.520434,1.162421 -1.162421,1.162421 -0.641987,0 -1.162421,-0.520434 -1.162421,-1.162421 0,-0.641987 0.520434,-1.162421 1.162421,-1.162421 0.641987,0 1.162421,0.520434 1.162421,1.162421 z" />
    </g>
    <g
       id="g125"
       transform="translate(23.452788,11.726394)">
      <path
         style="fill:none;fill-rule:evenodd;stroke:#000000;stroke-width:0.3;stroke-linecap:round;stroke-dasharray:0.3, 0.6;stroke-dashoffset:0;stroke-opacity:1"
         id="path121"
         d="m 40.844891,68.366257 h 5.138893 c 1.385001,0 2.500001,1.115 2.500001,2.5 v 5.138894 c 0,1.385 -1.115,2.5 -2.500001,2.5 h -5.138893 c -1.385,0 -2.5,-1.115 -2.5,-2.5 v -5.138894 c 0,-1.385 1.115,-2.5 2.5,-2.5 z" />
      <path
         style="fill:none;fill-opacity:1;stroke:#000000;stroke-width:0.2;stroke-linecap:square;stroke-miterlimit:0;stroke-dasharray:none;stroke-opacity:1"
         id="path122"
         d="m 42.324843,71.162422 c 0,0.641987 -0.520434,1.162421 -1.162421,1.162421 -0.641987,0 -1.162421,-0.520434 -1.162421,-1.162421 0,-0.641987 0.520434,-1.162421 1.162421,-1.162421 0.641987,0 1.162421,0.520434 1.162421,1.162421 z" />
      <path
         style="fill:#e73f1e;fill-opacity:1;stroke:#000000;stroke-width:0.2;stroke-linecap:square;stroke-miterlimit:0;stroke-dasharray:none;stroke-opacity:1"
         id="path123"
         d="m 42.324843,75.662422 c 0,0.641987 -0.520434,1.162421 -1.162421,1.162421 -0.641987,0 -1.162421,-0.520434 -1.162421,-1.162421 0,-0.641987 0.520434,-1.162421 1.162421,-1.162421 0.641987,0 1.162421,0.520434 1.162421,1.162421 z" />
      <path
         style="fill:none;fill-opacity:1;stroke:#000000;stroke-width:0.2;stroke-linecap:square;stroke-miterlimit:0;stroke-dasharray:none;stroke-opacity:1"
         id="path124"
         d="m 46.824843,75.662422 c 0,0.641987 -0.520434,1.162421 -1.162421,1.162421 -0.641987,0 -1.162421,-0.520434 -1.162421,-1.162421 0,-0.641987 0.520434,-1.162421 1.162421,-1.162421 0.641987,0 1.162421,0.520434 1.162421,1.162421 z" />
      <path
         style="fill:#e73f1e;fill-opacity:1;stroke:#000000;stroke-width:0.2;stroke-linecap:square;stroke-miterlimit:0;stroke-dasharray:none;stroke-opacity:1"
         id="path125"
         d="m 46.824843,71.162422 c 0,0.641987 -0.520434,1.162421 -1.162421,1.162421 -0.641987,0 -1.162421,-0.520434 -1.162421,-1.162421 0,-0.641987 0.520434,-1.162421 1.162421,-1.162421 0.641987,0 1.162421,0.520434 1.162421,1.162421 z" />
    </g>
    <g
       id="g130"
       transform="translate(35.179182,11.726394)">
      <path
         style="fill:none;fill-rule:evenodd;stroke:#000000;stroke-width:0.3;stroke-linecap:round;stroke-dasharray:0.3, 0.6;stroke-dashoffset:0;stroke-opacity:1"
         id="path126"
         d="m 40.844891,68.366257 h 5.138893 c 1.385001,0 2.500001,1.115 2.500001,2.5 v 5.138894 c 0,1.385 -1.115,2.5 -2.500001,2.5 h -5.138893 c -1.385,0 -2.5,-1.115 -2.5,-2.5 v -5.138894 c 0,-1.385 1.115,-2.5 2.5,-2.5 z" />
      <path
         style="fill:none;fill-opacity:1;stroke:#000000;stroke-width:0.2;stroke-linecap:square;stroke-miterlimit:0;stroke-dasharray:none;stroke-opacity:1"
         id="path127"
         d="m 42.324843,71.162422 c 0,0.641987 -0.520434,1.162421 -1.162421,1.162421 -0.641987,0 -1.162421,-0.520434 -1.162421,-1.162421 0,-0.641987 0.520434,-1.162421 1.162421,-1.162421 0.641987,0 1.162421,0.520434 1.162421,1.162421 z" />
      <path
         style="fill:none;fill-opacity:1;stroke:#000000;stroke-width:0.2;stroke-linecap:square;stroke-miterlimit:0;stroke-dasharray:none;stroke-opacity:1"
         id="path128"
         d="m 42.324843,75.662422 c 0,0.641987 -0.520434,1.162421 -1.162421,1.162421 -0.641987,0 -1.162421,-0.520434 -1.162421,-1.162421 0,-0.641987 0.520434,-1.162421 1.162421,-1.162421 0.641987,0 1.162421,0.520434 1.162421,1.162421 z" />
      <path
         style="fill:none;fill-opacity:1;stroke:#000000;stroke-width:0.2;stroke-linecap:square;stroke-miterlimit:0;stroke-dasharray:none;stroke-opacity:1"
         id="path129"
         d="m 46.824843,75.662422 c 0,0.641987 -0.520434,1.162421 -1.162421,1.162421 -0.641987,0 -1.162421,-0.520434 -1.162421,-1.162421 0,-0.641987 0.520434,-1.162421 1.162421,-1.162421 0.641987,0 1.162421,0.520434 1.162421,1.162421 z" />
      <path
         style="fill:none;fill-opacity:1;stroke:#000000;stroke-width:0.2;stroke-linecap:square;stroke-miterlimit:0;stroke-dasharray:none;stroke-opacity:1"
         id="path130"
         d="m 46.824843,71.162422 c 0,0.641987 -0.520434,1.162421 -1.162421,1.162421 -0.641987,0 -1.162421,-0.520434 -1.162421,-1.162421 0,-0.641987 0.520434,-1.162421 1.162421,-1.162421 0.641987,0 1.162421,0.520434 1.162421,1.162421 z" />
    </g>
    <g
       id="g135"
       transform="translate(46.905576,11.726394)">
      <path
         style="fill:none;fill-rule:evenodd;stroke:#000000;stroke-width:0.3;stroke-linecap:round;stroke-dasharray:0.3, 0.6;stroke-dashoffset:0;stroke-opacity:1"
         id="path131"
         d="m 40.844891,68.366257 h 5.138893 c 1.385001,0 2.500001,1.115 2.500001,2.5 v 5.138894 c 0,1.385 -1.115,2.5 -2.500001,2.5 h -5.138893 c -1.385,0 -2.5,-1.115 -2.5,-2.5 v -5.138894 c 0,-1.385 1.115,-2.5 2.5,-2.5 z" />
      <path
         style="fill:#e73f1e;fill-opacity:1;stroke:#000000;stroke-width:0.2;stroke-linecap:square;stroke-miterlimit:0;stroke-dasharray:none;stroke-opacity:1"
         id="path132"
         d="m 42.324843,71.162422 c 0,0.641987 -0.520434,1.162421 -1.162421,1.162421 -0.641987,0 -1.162421,-0.520434 -1.162421,-1.162421 0,-0.641987 0.520434,-1.162421 1.162421,-1.162421 0.641987,0 1.162421,0.520434 1.162421,1.162421 z" />
      <path
         style="fill:#e73f1e;fill-opacity:1;stroke:#000000;stroke-width:0.2;stroke-linecap:square;stroke-miterlimit:0;stroke-dasharray:none;stroke-opacity:1"
         id="path133"
         d="m 42.324843,75.662422 c 0,0.641987 -0.520434,1.162421 -1.162421,1.162421 -0.641987,0 -1.162421,-0.520434 -1.162421,-1.162421 0,-0.641987 0.520434,-1.162421 1.162421,-1.162421 0.641987,0 1.162421,0.520434 1.162421,1.162421 z" />
      <path
         style="fill:none;fill-opacity:1;stroke:#000000;stroke-width:0.2;stroke-linecap:square;stroke-miterlimit:0;stroke-dasharray:none;stroke-opacity:1"
         id="path134"
         d="m 46.824843,75.662422 c 0,0.641987 -0.520434,1.162421 -1.162421,1.162421 -0.641987,0 -1.162421,-0.520434 -1.162421,-1.162421 0,-0.641987 0.520434,-1.162421 1.162421,-1.162421 0.641987,0 1.162421,0.520434 1.162421,1.162421 z" />
      <path
         style="fill:none;fill-opacity:1;stroke:#000000;stroke-width:0.2;stroke-linecap:square;stroke-miterlimit:0;stroke-dasharray:none;stroke-opacity:1"
         id="path135"
         d="m 46.824843,71.162422 c 0,0.641987 -0.520434,1.162421 -1.162421,1.162421 -0.641987,0 -1.162421,-0.520434 -1.162421,-1.162421 0,-0.641987 0.520434,-1.162421 1.162421,-1.162421 0.641987,0 1.162421,0.520434 1.162421,1.162421 z" />
    </g>
    <g
       id="g140"
       transform="translate(58.63197,11.726394)">
      <path
         style="fill:none;fill-rule:evenodd;stroke:#000000;stroke-width:0.3;stroke-linecap:round;stroke-dasharray:0.3, 0.6;stroke-dashoffset:0;stroke-opacity:1"
         id="path136"
         d="m 40.844891,68.366257 h 5.138893 c 1.385001,0 2.500001,1.115 2.500001,2.5 v 5.138894 c 0,1.385 -1.115,2.5 -2.500001,2.5 h -5.138893 c -1.385,0 -2.5,-1.115 -2.5,-2.5 v -5.138894 c 0,-1.385 1.115,-2.5 2.5,-2.5 z" />
      <path
         style="fill:none;fill-opacity:1;stroke:#000000;stroke-width:0.2;stroke-linecap:square;stroke-miterlimit:0;stroke-dasharray:none;stroke-opacity:1"
         id="path137"
         d="m 42.324843,71.162422 c 0,0.641987 -0.520434,1.162421 -1.162421,1.162421 -0.641987,0 -1.162421,-0.520434 -1.162421,-1.162421 0,-0.641987 0.520434,-1.162421 1.162421,-1.162421 0.641987,0 1.162421,0.520434 1.162421,1.162421 z" />
      <path
         style="fill:none;fill-opacity:1;stroke:#000000;stroke-width:0.2;stroke-linecap:square;stroke-miterlimit:0;stroke-dasharray:none;stroke-opacity:1"
         id="path138"
         d="m 42.324843,75.662422 c 0,0.641987 -0.520434,1.162421 -1.162421,1.162421 -0.641987,0 -1.162421,-0.520434 -1.162421,-1.162421 0,-0.641987 0.520434,-1.162421 1.162421,-1.162421 0.641987,0 1.162421,0.520434 1.162421,1.162421 z" />
      <path
         style="fill:none;fill-opacity:1;stroke:#000000;stroke-width:0.2;stroke-linecap:square;stroke-miterlimit:0;stroke-dasharray:none;stroke-opacity:1"
         id="path139"
         d="m 46.824843,75.662422 c 0,0.641987 -0.520434,1.162421 -1.162421,1.162421 -0.641987,0 -1.162421,-0.520434 -1.162421,-1.162421 0,-0.641987 0.520434,-1.162421 1.162421,-1.162421 0.641987,0 1.162421,0.520434 1.162421,1.162421 z" />
      <path
         style="fill:none;fill-opacity:1;stroke:#000000;stroke-width:0.2;stroke-linecap:square;stroke-miterlimit:0;stroke-dasharray:none;stroke-opacity:1"
         id="path140"
         d="m 46.824843,71.162422 c 0,0.641987 -0.520434,1.162421 -1.162421,1.162421 -0.641987,0 -1.162421,-0.520434 -1.162421,-1.162421 0,-0.641987 0.520434,-1.162421 1.162421,-1.162421 0.641987,0 1.162421,0.520434 1.162421,1.162421 z" />
    </g>
    <g
       id="g145"
       transform="translate(0,23.452788)">
      <path
         style="fill:none;fill-rule:evenodd;stroke:#000000;stroke-width:0.3;stroke-linecap:round;stroke-dasharray:0.3, 0.6;stroke-dashoffset:0;stroke-opacity:1"
         id="path141"
         d="m 40.844891,68.366257 h 5.138893 c 1.385001,0 2.500001,1.115 2.500001,2.5 v 5.138894 c 0,1.385 -1.115,2.5 -2.500001,2.5 h -5.138893 c -1.385,0 -2.5,-1.115 -2.5,-2.5 v -5.138894 c 0,-1.385 1.115,-2.5 2.5,-2.5 z" />
      <path
         style="fill:none;fill-opacity:1;stroke:#000000;stroke-width:0.2;stroke-linecap:square;stroke-miterlimit:0;stroke-dasharray:none;stroke-opacity:1"
         id="path142"
         d="m 42.324843,71.162422 c 0,0.641987 -0.520434,1.162421 -1.162421,1.162421 -0.641987,0 -1.162421,-0.520434 -1.162421,-1.162421 0,-0.641987 0.520434,-1.162421 1.162421,-1.162421 0.641987,0 1.162421,0.520434 1.162421,1.162421 z" />
      <path
         style="fill:none;fill-opacity:1;stroke:#000000;stroke-width:0.2;stroke-linecap:square;stroke-miterlimit:0;stroke-dasharray:none;stroke-opacity:1"
         id="path143"
         d="m 42.324843,75.662422 c 0,0.641987 -0.520434,1.162421 -1.162421,1.162421 -0.641987,0 -1.162421,-0.520434 -1.162421,-1.162421 0,-0.641987 0.520434,-1.162421 1.162421,-1.162421 0.641987,0 1.162421,0.520434 1.162421,1.162421 z" />
      <path
         style="fill:none;fill-opacity:1;stroke:#000000;stroke-width:0.2;stroke-linecap:square;stroke-miterlimit:0;stroke-dasharray:none;stroke-opacity:1"
         id="path144"
         d="m 46.824843,75.662422 c 0,0.641987 -0.520434,1.162421 -1.162421,1.162421 -0.641987,0 -1.162421,-0.520434 -1.162421,-1.162421 0,-0.641987 0.520434,-1.162421 1.162421,-1.162421 0.641987,0 1.162421,0.520434 1.162421,1.162421 z" />
      <path
         style="fill:none;fill-opacity:1;stroke:#000000;stroke-width:0.2;stroke-linecap:square;stroke-miterlimit:0;stroke-dasharray:none;stroke-opacity:1"
         id="path145"
         d="m 46.824843,71.162422 c 0,0.641987 -0.520434,1.162421 -1.162421,1.162421 -0.641987,0 -1.162421,-0.520434 -1.162421,-1.162421 0,-0.641987 0.520434,-1.162421 1.162421,-1.162421 0.641987,0 1.162421,0.520434 1.162421,1.162421 z" />
    </g>
    <g
       id="g150"
       transform="translate(11.726394,23.452788)">
      <path
         style="fill:none;fill-rule:evenodd;stroke:#000000;stroke-width:0.3;stroke-linecap:round;stroke-dasharray:0.3, 0.6;stroke-dashoffset:0;stroke-opacity:1"
         id="path146"
         d="m 40.844891,68.366257 h 5.138893 c 1.385001,0 2.500001,1.115 2.500001,2.5 v 5.138894 c 0,1.385 -1.115,2.5 -2.500001,2.5 h -5.138893 c -1.385,0 -2.5,-1.115 -2.5,-2.5 v -5.138894 c 0,-1.385 1.115,-2.5 2.5,-2.5 z" />
      <path
         style="fill:none;fill-opacity:1;stroke:#000000;stroke-width:0.2;stroke-linecap:square;stroke-miterlimit:0;stroke-dasharray:none;stroke-opacity:1"
         id="path147"
         d="m 42.324843,71.162422 c 0,0.641987 -0.520434,1.162421 -1.162421,1.162421 -0.641987,0 -1.162421,-0.520434 -1.162421,-1.162421 0,-0.641987 0.520434,-1.162421 1.162421,-1.162421 0.641987,0 1.162421,0.520434 1.162421,1.162421 z" />
      <path
         style="fill:none;fill-opacity:1;stroke:#000000;stroke-width:0.2;stroke-linecap:square;stroke-miterlimit:0;stroke-dasharray:none;stroke-opacity:1"
         id="path148"
         d="m 42.324843,75.662422 c 0,0.641987 -0.520434,1.162421 -1.162421,1.162421 -0.641987,0 -1.162421,-0.520434 -1.162421,-1.162421 0,-0.641987 0.520434,-1.162421 1.162421,-1.162421 0.641987,0 1.162421,0.520434 1.162421,1.162421 z" />
      <path
         style="fill:none;fill-opacity:1;stroke:#000000;stroke-width:0.2;stroke-linecap:square;stroke-miterlimit:0;stroke-dasharray:none;stroke-opacity:1"
         id="path149"
         d="m 46.824843,75.662422 c 0,0.641987 -0.520434,1.162421 -1.162421,1.162421 -0.641987,0 -1.162421,-0.520434 -1.162421,-1.162421 0,-0.641987 0.520434,-1.162421 1.162421,-1.162421 0.641987,0 1.162421,0.520434 1.162421,1.162421 z" />
      <path
         style="fill:none;fill-opacity:1;stroke:#000000;stroke-width:0.2;stroke-linecap:square;stroke-miterlimit:0;stroke-dasharray:none;stroke-opacity:1"
         id="path150"
         d="m 46.824843,71.162422 c 0,0.641987 -0.520434,1.162421 -1.162421,1.162421 -0.641987,0 -1.162421,-0.520434 -1.162421,-1.162421 0,-0.641987 0.520434,-1.162421 1.162421,-1.162421 0.641987,0 1.162421,0.520434 1.162421,1.162421 z" />
    </g>
    <g
       id="g155"
       transform="translate(23.452788,23.452788)">
      <path
         style="fill:none;fill-rule:evenodd;stroke:#000000;stroke-width:0.3;stroke-linecap:round;stroke-dasharray:0.3, 0.6;stroke-dashoffset:0;stroke-opacity:1"
         id="path151"
         d="m 40.844891,68.366257 h 5.138893 c 1.385001,0 2.500001,1.115 2.500001,2.5 v 5.138894 c 0,1.385 -1.115,2.5 -2.500001,2.5 h -5.138893 c -1.385,0 -2.5,-1.115 -2.5,-2.5 v -5.138894 c 0,-1.385 1.115,-2.5 2.5,-2.5 z" />
      <path
         style="fill:none;fill-opacity:1;stroke:#000000;stroke-width:0.2;stroke-linecap:square;stroke-miterlimit:0;stroke-dasharray:none;stroke-opacity:1"
         id="path152"
         d="m 42.324843,71.162422 c 0,0.641987 -0.520434,1.162421 -1.162421,1.162421 -0.641987,0 -1.162421,-0.520434 -1.162421,-1.162421 0,-0.641987 0.520434,-1.162421 1.162421,-1.162421 0.641987,0 1.162421,0.520434 1.162421,1.162421 z" />
      <path
         style="fill:none;fill-opacity:1;stroke:#000000;stroke-width:0.2;stroke-linecap:square;stroke-miterlimit:0;stroke-dasharray:none;stroke-opacity:1"
         id="path153"
         d="m 42.324843,75.662422 c 0,0.641987 -0.520434,1.162421 -1.162421,1.162421 -0.641987,0 -1.162421,-0.520434 -1.162421,-1.162421 0,-0.641987 0.520434,-1.162421 1.162421,-1.162421 0.641987,0 1.162421,0.520434 1.162421,1.162421 z" />
      <path
         style="fill:none;fill-opacity:1;stroke:#000000;stroke-width:0.2;stroke-linecap:square;stroke-miterlimit:0;stroke-dasharray:none;stroke-opacity:1"
         id="path154"
         d="m 46.824843,75.662422 c 0,0.641987 -0.520434,1.162421 -1.162421,1.162421 -0.641987,0 -1.162421,-0.520434 -1.162421,-1.162421 0,-0.641987 0.520434,-1.162421 1.162421,-1.162421 0.641987,0 1.162421,0.520434 1.162421,1.162421 z" />
      <path
         style="fill:none;fill-opacity:1;stroke:#000000;stroke-width:0.2;stroke-linecap:square;stroke-miterlimit:0;stroke-dasharray:none;stroke-opacity:1"
         id="path155"
         d="m 46.824843,71.162422 c 0,0.641987 -0.520434,1.162421 -1.162421,1.162421 -0.641987,0 -1.162421,-0.520434 -1.162421,-1.162421 0,-0.641987 0.520434,-1.162421 1.162421,-1.162421 0.641987,0 1.162421,0.520434 1.162421,1.162421 z" />
    </g>
    <g
       id="g160"
       transform="translate(35.179182,23.452788)">
      <path
         style="fill:none;fill-rule:evenodd;stroke:#000000;stroke-width:0.3;stroke-linecap:round;stroke-dasharray:0.3, 0.6;stroke-dashoffset:0;stroke-opacity:1"
         id="path156"
         d="m 40.844891,68.366257 h 5.138893 c 1.385001,0 2.500001,1.115 2.500001,2.5 v 5.138894 c 0,1.385 -1.115,2.5 -2.500001,2.5 h -5.138893 c -1.385,0 -2.5,-1.115 -2.5,-2.5 v -5.138894 c 0,-1.385 1.115,-2.5 2.5,-2.5 z" />
      <path
         style="fill:none;fill-opacity:1;stroke:#000000;stroke-width:0.2;stroke-linecap:square;stroke-miterlimit:0;stroke-dasharray:none;stroke-opacity:1"
         id="path157"
         d="m 42.324843,71.162422 c 0,0.641987 -0.520434,1.162421 -1.162421,1.162421 -0.641987,0 -1.162421,-0.520434 -1.162421,-1.162421 0,-0.641987 0.520434,-1.162421 1.162421,-1.162421 0.641987,0 1.162421,0.520434 1.162421,1.162421 z" />
      <path
         style="fill:none;fill-opacity:1;stroke:#000000;stroke-width:0.2;stroke-linecap:square;stroke-miterlimit:0;stroke-dasharray:none;stroke-opacity:1"
         id="path158"
         d="m 42.324843,75.662422 c 0,0.641987 -0.520434,1.162421 -1.162421,1.162421 -0.641987,0 -1.162421,-0.520434 -1.162421,-1.162421 0,-0.641987 0.520434,-1.162421 1.162421,-1.162421 0.641987,0 1.162421,0.520434 1.162421,1.162421 z" />
      <path
         style="fill:none;fill-opacity:1;stroke:#000000;stroke-width:0.2;stroke-linecap:square;stroke-miterlimit:0;stroke-dasharray:none;stroke-opacity:1"
         id="path159"
         d="m 46.824843,75.662422 c 0,0.641987 -0.520434,1.162421 -1.162421,1.162421 -0.641987,0 -1.162421,-0.520434 -1.162421,-1.162421 0,-0.641987 0.520434,-1.162421 1.162421,-1.162421 0.641987,0 1.162421,0.520434 1.162421,1.162421 z" />
      <path
         style="fill:none;fill-opacity:1;stroke:#000000;stroke-width:0.2;stroke-linecap:square;stroke-miterlimit:0;stroke-dasharray:none;stroke-opacity:1"
         id="path160"
         d="m 46.824843,71.162422 c 0,0.641987 -0.520434,1.162421 -1.162421,1.162421 -0.641987,0 -1.162421,-0.520434 -1.162421,-1.162421 0,-0.641987 0.520434,-1.162421 1.162421,-1.162421 0.641987,0 1.162421,0.520434 1.162421,1.162421 z" />
    </g>
    <g
       id="g165"
       transform="translate(46.905576,23.452788)">
      <path
         style="fill:none;fill-rule:evenodd;stroke:#000000;stroke-width:0.3;stroke-linecap:round;stroke-dasharray:0.3, 0.6;stroke-dashoffset:0;stroke-opacity:1"
         id="path161"
         d="m 40.844891,68.366257 h 5.138893 c 1.385001,0 2.500001,1.115 2.500001,2.5 v 5.138894 c 0,1.385 -1.115,2.5 -2.500001,2.5 h -5.138893 c -1.385,0 -2.5,-1.115 -2.5,-2.5 v -5.138894 c 0,-1.385 1.115,-2.5 2.5,-2.5 z" />
      <path
         style="fill:none;fill-opacity:1;stroke:#000000;stroke-width:0.2;stroke-linecap:square;stroke-miterlimit:0;stroke-dasharray:none;stroke-opacity:1"
         id="path162"
         d="m 42.324843,71.162422 c 0,0.641987 -0.520434,1.162421 -1.162421,1.162421 -0.641987,0 -1.162421,-0.520434 -1.162421,-1.162421 0,-0.641987 0.520434,-1.162421 1.162421,-1.162421 0.641987,0 1.162421,0.520434 1.162421,1.162421 z" />
      <path
         style="fill:#3969ac;fill-opacity:1;stroke:#000000;stroke-width:0.2;stroke-linecap:square;stroke-miterlimit:0;stroke-dasharray:none;stroke-opacity:1"
         id="path163"
         d="m 42.324843,75.662422 c 0,0.641987 -0.520434,1.162421 -1.162421,1.162421 -0.641987,0 -1.162421,-0.520434 -1.162421,-1.162421 0,-0.641987 0.520434,-1.162421 1.162421,-1.162421 0.641987,0 1.162421,0.520434 1.162421,1.162421 z" />
      <path
         style="fill:#3969ac;fill-opacity:1;stroke:#000000;stroke-width:0.2;stroke-linecap:square;stroke-miterlimit:0;stroke-dasharray:none;stroke-opacity:1"
         id="path164"
         d="m 46.824843,75.662422 c 0,0.641987 -0.520434,1.162421 -1.162421,1.162421 -0.641987,0 -1.162421,-0.520434 -1.162421,-1.162421 0,-0.641987 0.520434,-1.162421 1.162421,-1.162421 0.641987,0 1.162421,0.520434 1.162421,1.162421 z" />
      <path
         style="fill:none;fill-opacity:1;stroke:#000000;stroke-width:0.2;stroke-linecap:square;stroke-miterlimit:0;stroke-dasharray:none;stroke-opacity:1"
         id="path165"
         d="m 46.824843,71.162422 c 0,0.641987 -0.520434,1.162421 -1.162421,1.162421 -0.641987,0 -1.162421,-0.520434 -1.162421,-1.162421 0,-0.641987 0.520434,-1.162421 1.162421,-1.162421 0.641987,0 1.162421,0.520434 1.162421,1.162421 z" />
    </g>
    <g
       id="g170"
       transform="translate(58.63197,23.452788)">
      <path
         style="fill:none;fill-rule:evenodd;stroke:#000000;stroke-width:0.3;stroke-linecap:round;stroke-dasharray:0.3, 0.6;stroke-dashoffset:0;stroke-opacity:1"
         id="path166"
         d="m 40.844891,68.366257 h 5.138893 c 1.385001,0 2.500001,1.115 2.500001,2.5 v 5.138894 c 0,1.385 -1.115,2.5 -2.500001,2.5 h -5.138893 c -1.385,0 -2.5,-1.115 -2.5,-2.5 v -5.138894 c 0,-1.385 1.115,-2.5 2.5,-2.5 z" />
      <path
         style="fill:none;fill-opacity:1;stroke:#000000;stroke-width:0.2;stroke-linecap:square;stroke-miterlimit:0;stroke-dasharray:none;stroke-opacity:1"
         id="path167"
         d="m 42.324843,71.162422 c 0,0.641987 -0.520434,1.162421 -1.162421,1.162421 -0.641987,0 -1.162421,-0.520434 -1.162421,-1.162421 0,-0.641987 0.520434,-1.162421 1.162421,-1.162421 0.641987,0 1.162421,0.520434 1.162421,1.162421 z" />
      <path
         style="fill:none;fill-opacity:1;stroke:#000000;stroke-width:0.2;stroke-linecap:square;stroke-miterlimit:0;stroke-dasharray:none;stroke-opacity:1"
         id="path168"
         d="m 42.324843,75.662422 c 0,0.641987 -0.520434,1.162421 -1.162421,1.162421 -0.641987,0 -1.162421,-0.520434 -1.162421,-1.162421 0,-0.641987 0.520434,-1.162421 1.162421,-1.162421 0.641987,0 1.162421,0.520434 1.162421,1.162421 z" />
      <path
         style="fill:none;fill-opacity:1;stroke:#000000;stroke-width:0.2;stroke-linecap:square;stroke-miterlimit:0;stroke-dasharray:none;stroke-opacity:1"
         id="path169"
         d="m 46.824843,75.662422 c 0,0.641987 -0.520434,1.162421 -1.162421,1.162421 -0.641987,0 -1.162421,-0.520434 -1.162421,-1.162421 0,-0.641987 0.520434,-1.162421 1.162421,-1.162421 0.641987,0 1.162421,0.520434 1.162421,1.162421 z" />
      <path
         style="fill:none;fill-opacity:1;stroke:#000000;stroke-width:0.2;stroke-linecap:square;stroke-miterlimit:0;stroke-dasharray:none;stroke-opacity:1"
         id="path170"
         d="m 46.824843,71.162422 c 0,0.641987 -0.520434,1.162421 -1.162421,1.162421 -0.641987,0 -1.162421,-0.520434 -1.162421,-1.162421 0,-0.641987 0.520434,-1.162421 1.162421,-1.162421 0.641987,0 1.162421,0.520434 1.162421,1.162421 z" />
    </g>
  </g>
</svg>
