<?xml version="1.0" encoding="UTF-8" standalone="no"?>
<!-- Created with Inkscape (http://www.inkscape.org/) -->

<svg
   width="210mm"
   height="297mm"
   viewBox="0 0 210 297"
   version="1.1"
   id="svg1"
   inkscape:version="1.3 (0e150ed6c4, 2023-07-21)"
   sodipodi:docname="mapping.svg"
   xml:space="preserve"
   xmlns:inkscape="http://www.inkscape.org/namespaces/inkscape"
   xmlns:sodipodi="http://sodipodi.sourceforge.net/DTD/sodipodi-0.dtd"
   xmlns="http://www.w3.org/2000/svg"
   xmlns:svg="http://www.w3.org/2000/svg"><sodipodi:namedview
     id="namedview1"
     pagecolor="#ffffff"
     bordercolor="#000000"
     borderopacity="0.25"
     inkscape:showpageshadow="2"
     inkscape:pageopacity="0.0"
     inkscape:pagecheckerboard="0"
     inkscape:deskcolor="#d1d1d1"
     inkscape:document-units="mm"
     inkscape:zoom="1.0242632"
     inkscape:cx="350.49584"
     inkscape:cy="328.52883"
     inkscape:window-width="1920"
     inkscape:window-height="1009"
     inkscape:window-x="-8"
     inkscape:window-y="-8"
     inkscape:window-maximized="1"
     inkscape:current-layer="g1" /><defs
     id="defs1"><inkscape:path-effect
       effect="tiling"
       id="path-effect78-1-8-6"
       is_visible="true"
       lpeversion="1"
       unit="px"
       seed="1;1"
       lpesatellites="#path79-7-0-7 | #path80-5-4-8 | #path81-2-6-6 | #path82-0-6-6 | #path83-0-8-4 | #path84-2-2-8 | #path85-8-5-5 | #path86-1-8-0 | #path87-9-1-4 | #path88-1-4-7 | #path89-4-0-3 | #path90-1-8-8 | #path91-0-1-6 | #path92-9-2-0 | #path93-0-2-5 | #path94-0-3-8 | #path95-3-2-7 | #path96-1-6-6 | #path97-3-1-2 | #path98-4-5-9 | #path99-6-3-8 | #path100-6-8-9 | #path101-2-5-8 | #path102-5-4-9 | #path103-9-9-7 | #path104-5-9-8 | #path105-4-4-1 | #path106-3-7-2 | #path107-2-3-1 | #path108-6-4-6 | #path109-6-7-7 | #path110-1-3-5 | #path111-8-5-7 | #path112-3-7-8 | #path113-7-1-5"
       num_rows="6"
       num_cols="6"
       gapx="5"
       gapy="5"
       offset="0"
       offset_type="false"
       scale="0"
       rotate="0"
       mirrorrowsx="false"
       mirrorrowsy="false"
       mirrorcolsx="false"
       mirrorcolsy="false"
       mirrortrans="false"
       shrink_interp="false"
       split_items="true"
       link_styles="false"
       interpolate_scalex="false"
       interpolate_scaley="true"
       interpolate_rotatex="false"
       interpolate_rotatey="true"
       random_scale="false"
       random_rotate="false"
       random_gap_y="false"
       random_gap_x="false"
       transformorigin="" /><inkscape:path-effect
       effect="tiling"
       id="path-effect71-9-5-8"
       is_visible="true"
       lpeversion="1"
       unit="px"
       seed="1;1"
       lpesatellites="#path71-8-9-1 | #path72-2-7-7 | #path73-5-7-8 | #path74-1-9-6 | #path75-5-1-7 | #path76-3-5-1 | #path77-7-6-9 | #path78-9-9-6 | #path1 | #path2 | #path3 | #path4 | #path5 | #path6 | #path7"
       num_rows="4"
       num_cols="4"
       gapx="5"
       gapy="5"
       offset="0"
       offset_type="false"
       scale="0"
       rotate="0"
       mirrorrowsx="false"
       mirrorrowsy="false"
       mirrorcolsx="false"
       mirrorcolsy="false"
       mirrortrans="false"
       shrink_interp="false"
       split_items="true"
       link_styles="false"
       interpolate_scalex="false"
       interpolate_scaley="true"
       interpolate_rotatex="false"
       interpolate_rotatey="true"
       random_scale="false"
       random_rotate="false"
       random_gap_y="false"
       random_gap_x="false"
       transformorigin="" /></defs><g
     inkscape:label="Layer 1"
     inkscape:groupmode="layer"
     id="layer1"
     style="display:inline"><g
       id="g119-2-0"
       inkscape:label="left qubits"
       inkscape:export-filename="..\mapping.png"
       inkscape:export-xdpi="600"
       inkscape:export-ydpi="600"
       transform="translate(80.874744,8.65154)"><path
         style="fill:#000000;fill-opacity:1;stroke:#000000;stroke-width:0.3;stroke-linecap:round;stroke-miterlimit:0;stroke-dasharray:none;stroke-opacity:1"
         id="path64-1-5-0-1"
         d="m 58.011513,86.580672 c 0,2.01757 -1.635565,3.65313 -3.653137,3.65313 -2.017571,0 -3.653136,-1.63556 -3.653136,-3.65313 0,-2.01757 1.635565,-3.65314 3.653136,-3.65314 2.017572,0 3.653137,1.63557 3.653137,3.65314 z"
         inkscape:path-effect="#path-effect78-1-8-6"
         inkscape:original-d="m 58.011513,86.580672 c 0,2.01757 -1.635565,3.65313 -3.653137,3.65313 -2.017571,0 -3.653136,-1.63556 -3.653136,-3.65313 0,-2.01757 1.635565,-3.65314 3.653136,-3.65314 2.017572,0 3.653137,1.63557 3.653137,3.65314 z"
         transform="translate(-44.911237,-20.785321)" /><path
         transform="translate(-36.282047,-20.785321)"
         style="fill:none;fill-opacity:1;stroke:#000000;stroke-width:0.3;stroke-linecap:round;stroke-miterlimit:0;stroke-dasharray:none;stroke-opacity:1"
         id="path79-7-0-7"
         d="m 58.011513,86.580672 c 0,2.01757 -1.635565,3.65313 -3.653137,3.65313 -2.017571,0 -3.653136,-1.63556 -3.653136,-3.65313 0,-2.01757 1.635565,-3.65314 3.653136,-3.65314 2.017572,0 3.653137,1.63557 3.653137,3.65314 z" /><path
         transform="translate(-27.652858,-20.785321)"
         style="fill:none;stroke:#000000;stroke-width:0.3;stroke-linecap:round;stroke-miterlimit:0;stroke-dasharray:none;stroke-opacity:1"
         id="path80-5-4-8"
         d="m 58.011513,86.580672 c 0,2.01757 -1.635565,3.65313 -3.653137,3.65313 -2.017571,0 -3.653136,-1.63556 -3.653136,-3.65313 0,-2.01757 1.635565,-3.65314 3.653136,-3.65314 2.017572,0 3.653137,1.63557 3.653137,3.65314 z" /><path
         transform="translate(-19.023668,-20.785321)"
         style="fill:none;stroke:#000000;stroke-width:0.3;stroke-linecap:round;stroke-miterlimit:0;stroke-dasharray:none;stroke-opacity:1"
         id="path81-2-6-6"
         d="m 58.011513,86.580672 c 0,2.01757 -1.635565,3.65313 -3.653137,3.65313 -2.017571,0 -3.653136,-1.63556 -3.653136,-3.65313 0,-2.01757 1.635565,-3.65314 3.653136,-3.65314 2.017572,0 3.653137,1.63557 3.653137,3.65314 z" /><path
         transform="translate(-10.394478,-20.785321)"
         style="fill:#f2b701;fill-opacity:1;stroke:#000000;stroke-width:0.3;stroke-linecap:round;stroke-miterlimit:0;stroke-dasharray:none;stroke-opacity:1"
         id="path82-0-6-6"
         d="m 58.011513,86.580672 c 0,2.01757 -1.635565,3.65313 -3.653137,3.65313 -2.017571,0 -3.653136,-1.63556 -3.653136,-3.65313 0,-2.01757 1.635565,-3.65314 3.653136,-3.65314 2.017572,0 3.653137,1.63557 3.653137,3.65314 z" /><path
         transform="translate(-1.7652887,-20.785321)"
         style="fill:none;fill-opacity:1;stroke:#000000;stroke-width:0.3;stroke-linecap:round;stroke-miterlimit:0;stroke-dasharray:none;stroke-opacity:1"
         id="path83-0-8-4"
         d="m 58.011513,86.580672 c 0,2.01757 -1.635565,3.65313 -3.653137,3.65313 -2.017571,0 -3.653136,-1.63556 -3.653136,-3.65313 0,-2.01757 1.635565,-3.65314 3.653136,-3.65314 2.017572,0 3.653137,1.63557 3.653137,3.65314 z"
         inkscape:label="path83-0-8-4" /><path
         transform="translate(-44.911237,-12.156134)"
         style="fill:none;stroke:#000000;stroke-width:0.3;stroke-linecap:round;stroke-miterlimit:0;stroke-dasharray:none;stroke-opacity:1"
         id="path84-2-2-8"
         d="m 58.011513,86.580672 c 0,2.01757 -1.635565,3.65313 -3.653137,3.65313 -2.017571,0 -3.653136,-1.63556 -3.653136,-3.65313 0,-2.01757 1.635565,-3.65314 3.653136,-3.65314 2.017572,0 3.653137,1.63557 3.653137,3.65314 z" /><path
         transform="translate(-36.282047,-12.156134)"
         style="fill:#000000;fill-opacity:1;stroke:#000000;stroke-width:0.3;stroke-linecap:round;stroke-miterlimit:0;stroke-dasharray:none;stroke-opacity:1"
         id="path85-8-5-5"
         d="m 58.011513,86.580672 c 0,2.01757 -1.635565,3.65313 -3.653137,3.65313 -2.017571,0 -3.653136,-1.63556 -3.653136,-3.65313 0,-2.01757 1.635565,-3.65314 3.653136,-3.65314 2.017572,0 3.653137,1.63557 3.653137,3.65314 z" /><path
         transform="translate(-27.652858,-12.156134)"
         style="fill:none;stroke:#000000;stroke-width:0.3;stroke-linecap:round;stroke-miterlimit:0;stroke-dasharray:none;stroke-opacity:1"
         id="path86-1-8-0"
         d="m 58.011513,86.580672 c 0,2.01757 -1.635565,3.65313 -3.653137,3.65313 -2.017571,0 -3.653136,-1.63556 -3.653136,-3.65313 0,-2.01757 1.635565,-3.65314 3.653136,-3.65314 2.017572,0 3.653137,1.63557 3.653137,3.65314 z" /><path
         transform="translate(-19.023668,-12.156134)"
         style="fill:none;stroke:#000000;stroke-width:0.3;stroke-linecap:round;stroke-miterlimit:0;stroke-dasharray:none;stroke-opacity:1"
         id="path87-9-1-4"
         d="m 58.011513,86.580672 c 0,2.01757 -1.635565,3.65313 -3.653137,3.65313 -2.017571,0 -3.653136,-1.63556 -3.653136,-3.65313 0,-2.01757 1.635565,-3.65314 3.653136,-3.65314 2.017572,0 3.653137,1.63557 3.653137,3.65314 z" /><path
         transform="translate(-10.394478,-12.156134)"
         style="fill:none;fill-opacity:1;stroke:#000000;stroke-width:0.3;stroke-linecap:round;stroke-miterlimit:0;stroke-dasharray:none;stroke-opacity:1"
         id="path88-1-4-7"
         d="m 58.011513,86.580672 c 0,2.01757 -1.635565,3.65313 -3.653137,3.65313 -2.017571,0 -3.653136,-1.63556 -3.653136,-3.65313 0,-2.01757 1.635565,-3.65314 3.653136,-3.65314 2.017572,0 3.653137,1.63557 3.653137,3.65314 z" /><path
         transform="translate(-1.7652887,-12.156134)"
         style="fill:none;stroke:#000000;stroke-width:0.3;stroke-linecap:round;stroke-miterlimit:0;stroke-dasharray:none;stroke-opacity:1"
         id="path89-4-0-3"
         d="m 58.011513,86.580672 c 0,2.01757 -1.635565,3.65313 -3.653137,3.65313 -2.017571,0 -3.653136,-1.63556 -3.653136,-3.65313 0,-2.01757 1.635565,-3.65314 3.653136,-3.65314 2.017572,0 3.653137,1.63557 3.653137,3.65314 z" /><path
         transform="translate(-44.911237,-3.5269477)"
         style="fill:none;stroke:#000000;stroke-width:0.3;stroke-linecap:round;stroke-miterlimit:0;stroke-dasharray:none;stroke-opacity:1"
         id="path90-1-8-8"
         d="m 58.011513,86.580672 c 0,2.01757 -1.635565,3.65313 -3.653137,3.65313 -2.017571,0 -3.653136,-1.63556 -3.653136,-3.65313 0,-2.01757 1.635565,-3.65314 3.653136,-3.65314 2.017572,0 3.653137,1.63557 3.653137,3.65314 z" /><path
         transform="translate(-36.282047,-3.5269477)"
         style="fill:none;stroke:#000000;stroke-width:0.3;stroke-linecap:round;stroke-miterlimit:0;stroke-dasharray:none;stroke-opacity:1"
         id="path91-0-1-6"
         d="m 58.011513,86.580672 c 0,2.01757 -1.635565,3.65313 -3.653137,3.65313 -2.017571,0 -3.653136,-1.63556 -3.653136,-3.65313 0,-2.01757 1.635565,-3.65314 3.653136,-3.65314 2.017572,0 3.653137,1.63557 3.653137,3.65314 z" /><path
         transform="translate(-27.652858,-3.5269477)"
         style="fill:none;fill-opacity:1;stroke:#000000;stroke-width:0.3;stroke-linecap:round;stroke-miterlimit:0;stroke-dasharray:none;stroke-opacity:1"
         id="path92-9-2-0"
         d="m 58.011513,86.580672 c 0,2.01757 -1.635565,3.65313 -3.653137,3.65313 -2.017571,0 -3.653136,-1.63556 -3.653136,-3.65313 0,-2.01757 1.635565,-3.65314 3.653136,-3.65314 2.017572,0 3.653137,1.63557 3.653137,3.65314 z" /><path
         transform="translate(-19.023668,-3.5269477)"
         style="fill:none;stroke:#000000;stroke-width:0.3;stroke-linecap:round;stroke-miterlimit:0;stroke-dasharray:none;stroke-opacity:1"
         id="path93-0-2-5"
         d="m 58.011513,86.580672 c 0,2.01757 -1.635565,3.65313 -3.653137,3.65313 -2.017571,0 -3.653136,-1.63556 -3.653136,-3.65313 0,-2.01757 1.635565,-3.65314 3.653136,-3.65314 2.017572,0 3.653137,1.63557 3.653137,3.65314 z" /><path
         transform="translate(-10.394478,-3.5269477)"
         style="fill:none;fill-opacity:1;stroke:#000000;stroke-width:0.3;stroke-linecap:round;stroke-miterlimit:0;stroke-dasharray:none;stroke-opacity:1"
         id="path94-0-3-8"
         d="m 58.011513,86.580672 c 0,2.01757 -1.635565,3.65313 -3.653137,3.65313 -2.017571,0 -3.653136,-1.63556 -3.653136,-3.65313 0,-2.01757 1.635565,-3.65314 3.653136,-3.65314 2.017572,0 3.653137,1.63557 3.653137,3.65314 z" /><path
         transform="translate(-1.7652887,-3.5269477)"
         style="fill:none;stroke:#000000;stroke-width:0.3;stroke-linecap:round;stroke-miterlimit:0;stroke-dasharray:none;stroke-opacity:1"
         id="path95-3-2-7"
         d="m 58.011513,86.580672 c 0,2.01757 -1.635565,3.65313 -3.653137,3.65313 -2.017571,0 -3.653136,-1.63556 -3.653136,-3.65313 0,-2.01757 1.635565,-3.65314 3.653136,-3.65314 2.017572,0 3.653137,1.63557 3.653137,3.65314 z"
         inkscape:label="path95-3-2-7" /><path
         transform="translate(-44.911237,5.102239)"
         style="fill:none;stroke:#000000;stroke-width:0.3;stroke-linecap:round;stroke-miterlimit:0;stroke-dasharray:none;stroke-opacity:1"
         id="path96-1-6-6"
         d="m 58.011513,86.580672 c 0,2.01757 -1.635565,3.65313 -3.653137,3.65313 -2.017571,0 -3.653136,-1.63556 -3.653136,-3.65313 0,-2.01757 1.635565,-3.65314 3.653136,-3.65314 2.017572,0 3.653137,1.63557 3.653137,3.65314 z" /><path
         transform="translate(-36.282047,5.102239)"
         style="fill:none;stroke:#000000;stroke-width:0.3;stroke-linecap:round;stroke-miterlimit:0;stroke-dasharray:none;stroke-opacity:1"
         id="path97-3-1-2"
         d="m 58.011513,86.580672 c 0,2.01757 -1.635565,3.65313 -3.653137,3.65313 -2.017571,0 -3.653136,-1.63556 -3.653136,-3.65313 0,-2.01757 1.635565,-3.65314 3.653136,-3.65314 2.017572,0 3.653137,1.63557 3.653137,3.65314 z" /><path
         transform="translate(-27.652858,5.102239)"
         style="fill:none;stroke:#000000;stroke-width:0.3;stroke-linecap:round;stroke-miterlimit:0;stroke-dasharray:none;stroke-opacity:1"
         id="path98-4-5-9"
         d="m 58.011513,86.580672 c 0,2.01757 -1.635565,3.65313 -3.653137,3.65313 -2.017571,0 -3.653136,-1.63556 -3.653136,-3.65313 0,-2.01757 1.635565,-3.65314 3.653136,-3.65314 2.017572,0 3.653137,1.63557 3.653137,3.65314 z" /><path
         transform="translate(-19.023668,5.102239)"
         style="fill:none;fill-opacity:1;stroke:#000000;stroke-width:0.3;stroke-linecap:round;stroke-miterlimit:0;stroke-dasharray:none;stroke-opacity:1"
         id="path99-6-3-8"
         d="m 58.011513,86.580672 c 0,2.01757 -1.635565,3.65313 -3.653137,3.65313 -2.017571,0 -3.653136,-1.63556 -3.653136,-3.65313 0,-2.01757 1.635565,-3.65314 3.653136,-3.65314 2.017572,0 3.653137,1.63557 3.653137,3.65314 z" /><path
         transform="translate(-10.394478,5.102239)"
         style="fill:none;stroke:#000000;stroke-width:0.3;stroke-linecap:round;stroke-miterlimit:0;stroke-dasharray:none;stroke-opacity:1"
         id="path100-6-8-9"
         d="m 58.011513,86.580672 c 0,2.01757 -1.635565,3.65313 -3.653137,3.65313 -2.017571,0 -3.653136,-1.63556 -3.653136,-3.65313 0,-2.01757 1.635565,-3.65314 3.653136,-3.65314 2.017572,0 3.653137,1.63557 3.653137,3.65314 z" /><path
         transform="translate(-1.7652887,5.102239)"
         style="fill:none;stroke:#000000;stroke-width:0.3;stroke-linecap:round;stroke-miterlimit:0;stroke-dasharray:none;stroke-opacity:1"
         id="path101-2-5-8"
         d="m 58.011513,86.580672 c 0,2.01757 -1.635565,3.65313 -3.653137,3.65313 -2.017571,0 -3.653136,-1.63556 -3.653136,-3.65313 0,-2.01757 1.635565,-3.65314 3.653136,-3.65314 2.017572,0 3.653137,1.63557 3.653137,3.65314 z"
         inkscape:label="path101-2-5-8" /><path
         transform="translate(-44.911237,13.731426)"
         style="fill:#f2b701;fill-opacity:1;stroke:#000000;stroke-width:0.3;stroke-linecap:round;stroke-miterlimit:0;stroke-dasharray:none;stroke-opacity:1"
         id="path102-5-4-9"
         d="m 58.011513,86.580672 c 0,2.01757 -1.635565,3.65313 -3.653137,3.65313 -2.017571,0 -3.653136,-1.63556 -3.653136,-3.65313 0,-2.01757 1.635565,-3.65314 3.653136,-3.65314 2.017572,0 3.653137,1.63557 3.653137,3.65314 z" /><path
         transform="translate(-36.282047,13.731426)"
         style="fill:none;fill-opacity:1;stroke:#000000;stroke-width:0.3;stroke-linecap:round;stroke-miterlimit:0;stroke-dasharray:none;stroke-opacity:1"
         id="path103-9-9-7"
         d="m 58.011513,86.580672 c 0,2.01757 -1.635565,3.65313 -3.653137,3.65313 -2.017571,0 -3.653136,-1.63556 -3.653136,-3.65313 0,-2.01757 1.635565,-3.65314 3.653136,-3.65314 2.017572,0 3.653137,1.63557 3.653137,3.65314 z" /><path
         transform="translate(-27.652858,13.731426)"
         style="fill:none;fill-opacity:1;stroke:#000000;stroke-width:0.3;stroke-linecap:round;stroke-miterlimit:0;stroke-dasharray:none;stroke-opacity:1"
         id="path104-5-9-8"
         d="m 58.011513,86.580672 c 0,2.01757 -1.635565,3.65313 -3.653137,3.65313 -2.017571,0 -3.653136,-1.63556 -3.653136,-3.65313 0,-2.01757 1.635565,-3.65314 3.653136,-3.65314 2.017572,0 3.653137,1.63557 3.653137,3.65314 z" /><path
         transform="translate(-19.023668,13.731426)"
         style="fill:none;stroke:#000000;stroke-width:0.3;stroke-linecap:round;stroke-miterlimit:0;stroke-dasharray:none;stroke-opacity:1"
         id="path105-4-4-1"
         d="m 58.011513,86.580672 c 0,2.01757 -1.635565,3.65313 -3.653137,3.65313 -2.017571,0 -3.653136,-1.63556 -3.653136,-3.65313 0,-2.01757 1.635565,-3.65314 3.653136,-3.65314 2.017572,0 3.653137,1.63557 3.653137,3.65314 z" /><path
         transform="translate(-10.394478,13.731426)"
         style="fill:none;fill-opacity:1;stroke:#000000;stroke-width:0.3;stroke-linecap:round;stroke-miterlimit:0;stroke-dasharray:none;stroke-opacity:1"
         id="path106-3-7-2"
         d="m 58.011513,86.580672 c 0,2.01757 -1.635565,3.65313 -3.653137,3.65313 -2.017571,0 -3.653136,-1.63556 -3.653136,-3.65313 0,-2.01757 1.635565,-3.65314 3.653136,-3.65314 2.017572,0 3.653137,1.63557 3.653137,3.65314 z" /><path
         transform="translate(-1.7652887,13.731426)"
         style="fill:none;stroke:#000000;stroke-width:0.3;stroke-linecap:round;stroke-miterlimit:0;stroke-dasharray:none;stroke-opacity:1"
         id="path107-2-3-1"
         d="m 58.011513,86.580672 c 0,2.01757 -1.635565,3.65313 -3.653137,3.65313 -2.017571,0 -3.653136,-1.63556 -3.653136,-3.65313 0,-2.01757 1.635565,-3.65314 3.653136,-3.65314 2.017572,0 3.653137,1.63557 3.653137,3.65314 z" /><path
         transform="translate(-44.911237,22.360612)"
         style="fill:none;stroke:#000000;stroke-width:0.3;stroke-linecap:round;stroke-miterlimit:0;stroke-dasharray:none;stroke-opacity:1"
         id="path108-6-4-6"
         d="m 58.011513,86.580672 c 0,2.01757 -1.635565,3.65313 -3.653137,3.65313 -2.017571,0 -3.653136,-1.63556 -3.653136,-3.65313 0,-2.01757 1.635565,-3.65314 3.653136,-3.65314 2.017572,0 3.653137,1.63557 3.653137,3.65314 z" /><path
         transform="translate(-36.282047,22.360612)"
         style="fill:none;stroke:#000000;stroke-width:0.3;stroke-linecap:round;stroke-miterlimit:0;stroke-dasharray:none;stroke-opacity:1"
         id="path109-6-7-7"
         d="m 58.011513,86.580672 c 0,2.01757 -1.635565,3.65313 -3.653137,3.65313 -2.017571,0 -3.653136,-1.63556 -3.653136,-3.65313 0,-2.01757 1.635565,-3.65314 3.653136,-3.65314 2.017572,0 3.653137,1.63557 3.653137,3.65314 z" /><path
         transform="translate(-27.652858,22.360612)"
         style="fill:none;stroke:#000000;stroke-width:0.3;stroke-linecap:round;stroke-miterlimit:0;stroke-dasharray:none;stroke-opacity:1"
         id="path110-1-3-5"
         d="m 58.011513,86.580672 c 0,2.01757 -1.635565,3.65313 -3.653137,3.65313 -2.017571,0 -3.653136,-1.63556 -3.653136,-3.65313 0,-2.01757 1.635565,-3.65314 3.653136,-3.65314 2.017572,0 3.653137,1.63557 3.653137,3.65314 z" /><path
         transform="translate(-19.023668,22.360612)"
         style="fill:none;stroke:#000000;stroke-width:0.3;stroke-linecap:round;stroke-miterlimit:0;stroke-dasharray:none;stroke-opacity:1"
         id="path111-8-5-7"
         d="m 58.011513,86.580672 c 0,2.01757 -1.635565,3.65313 -3.653137,3.65313 -2.017571,0 -3.653136,-1.63556 -3.653136,-3.65313 0,-2.01757 1.635565,-3.65314 3.653136,-3.65314 2.017572,0 3.653137,1.63557 3.653137,3.65314 z" /><path
         transform="translate(-10.394478,22.360612)"
         style="fill:none;stroke:#000000;stroke-width:0.3;stroke-linecap:round;stroke-miterlimit:0;stroke-dasharray:none;stroke-opacity:1"
         id="path112-3-7-8"
         d="m 58.011513,86.580672 c 0,2.01757 -1.635565,3.65313 -3.653137,3.65313 -2.017571,0 -3.653136,-1.63556 -3.653136,-3.65313 0,-2.01757 1.635565,-3.65314 3.653136,-3.65314 2.017572,0 3.653137,1.63557 3.653137,3.65314 z" /><path
         transform="translate(-1.7652887,22.360612)"
         style="fill:none;fill-opacity:1;stroke:#000000;stroke-width:0.3;stroke-linecap:round;stroke-miterlimit:0;stroke-dasharray:none;stroke-opacity:1"
         id="path113-7-1-5"
         d="m 58.011513,86.580672 c 0,2.01757 -1.635565,3.65313 -3.653137,3.65313 -2.017571,0 -3.653136,-1.63556 -3.653136,-3.65313 0,-2.01757 1.635565,-3.65314 3.653136,-3.65314 2.017572,0 3.653137,1.63557 3.653137,3.65314 z"
         inkscape:label="path113-7-1-5" /><path
         style="display:inline;fill:none;fill-opacity:1;stroke:#000000;stroke-width:0.864999;stroke-linecap:butt;stroke-linejoin:miter;stroke-dasharray:none;stroke-opacity:1"
         d="m 80.032704,186.55388 59.547536,59.54754"
         id="path114-7"
         inkscape:label="diagonal"
         transform="translate(-79.777235,-130.03415)" /></g><g
       id="g1"
       inkscape:label="right qubits"
       style="display:inline"><path
         style="fill:none;fill-opacity:1;stroke:#000000;stroke-width:0.300006;stroke-linecap:round;stroke-miterlimit:0;stroke-dasharray:none;stroke-opacity:1"
         id="path64-1-0-7-2-4"
         d="m 46.697106,137.50022 c 0,2.01757 -1.635565,3.65313 -3.653137,3.65313 -2.017571,0 -3.653136,-1.63556 -3.653136,-3.65313 0,-2.01757 1.635565,-3.65314 3.653136,-3.65314 2.017572,0 3.653137,1.63557 3.653137,3.65314 z"
         inkscape:path-effect="#path-effect71-9-5-8"
         inkscape:original-d="m 46.697106,137.50022 c 0,2.01757 -1.635565,3.65313 -3.653137,3.65313 -2.017571,0 -3.653136,-1.63556 -3.653136,-3.65313 0,-2.01757 1.635565,-3.65314 3.653136,-3.65314 2.017572,0 3.653137,1.63557 3.653137,3.65314 z"
         transform="matrix(0.99996263,0,0,1,104.27964,-45.753197)" /><path
         style="fill:none;fill-opacity:1;stroke:#000000;stroke-width:0.300006;stroke-linecap:round;stroke-miterlimit:0;stroke-dasharray:none;stroke-opacity:1"
         id="path71-8-9-1"
         d="m 46.697106,137.50022 c 0,2.01757 -1.635565,3.65313 -3.653137,3.65313 -2.017571,0 -3.653136,-1.63556 -3.653136,-3.65313 0,-2.01757 1.635565,-3.65314 3.653136,-3.65314 2.017572,0 3.653137,1.63557 3.653137,3.65314 z"
         transform="matrix(0.99996263,0,0,1,112.90851,-45.753197)"
         inkscape:label="path71-8-9-1" /><path
         style="fill:none;stroke:#000000;stroke-width:0.300006;stroke-linecap:round;stroke-miterlimit:0;stroke-dasharray:none;stroke-opacity:1"
         id="path72-2-7-7"
         d="m 46.697106,137.50022 c 0,2.01757 -1.635565,3.65313 -3.653137,3.65313 -2.017571,0 -3.653136,-1.63556 -3.653136,-3.65313 0,-2.01757 1.635565,-3.65314 3.653136,-3.65314 2.017572,0 3.653137,1.63557 3.653137,3.65314 z"
         transform="matrix(0.99996263,0,0,1,121.53737,-45.753197)" /><path
         style="fill:none;stroke:#000000;stroke-width:0.300006;stroke-linecap:round;stroke-miterlimit:0;stroke-dasharray:none;stroke-opacity:1"
         id="path73-5-7-8"
         d="m 46.697106,137.50022 c 0,2.01757 -1.635565,3.65313 -3.653137,3.65313 -2.017571,0 -3.653136,-1.63556 -3.653136,-3.65313 0,-2.01757 1.635565,-3.65314 3.653136,-3.65314 2.017572,0 3.653137,1.63557 3.653137,3.65314 z"
         transform="matrix(0.99996263,0,0,1,130.16624,-45.753197)"
         inkscape:label="path73" /><path
         style="fill:none;fill-opacity:1;stroke:#000000;stroke-width:0.300006;stroke-linecap:round;stroke-miterlimit:0;stroke-dasharray:none;stroke-opacity:1"
         id="path74-1-9-6"
         d="m 46.697106,137.50022 c 0,2.01757 -1.635565,3.65313 -3.653137,3.65313 -2.017571,0 -3.653136,-1.63556 -3.653136,-3.65313 0,-2.01757 1.635565,-3.65314 3.653136,-3.65314 2.017572,0 3.653137,1.63557 3.653137,3.65314 z"
         transform="matrix(0.99996263,0,0,1,104.27964,-37.12401)"
         inkscape:label="path74-1-9-6" /><path
         style="fill:none;fill-opacity:1;stroke:#000000;stroke-width:0.300006;stroke-linecap:round;stroke-miterlimit:0;stroke-dasharray:none;stroke-opacity:1"
         id="path75-5-1-7"
         d="m 46.697106,137.50022 c 0,2.01757 -1.635565,3.65313 -3.653137,3.65313 -2.017571,0 -3.653136,-1.63556 -3.653136,-3.65313 0,-2.01757 1.635565,-3.65314 3.653136,-3.65314 2.017572,0 3.653137,1.63557 3.653137,3.65314 z"
         transform="matrix(0.99996263,0,0,1,112.90851,-37.12401)"
         inkscape:label="path75-5-1-7" /><path
         style="fill:none;stroke:#000000;stroke-width:0.300006;stroke-linecap:round;stroke-miterlimit:0;stroke-dasharray:none;stroke-opacity:1"
         id="path76-3-5-1"
         d="m 46.697106,137.50022 c 0,2.01757 -1.635565,3.65313 -3.653137,3.65313 -2.017571,0 -3.653136,-1.63556 -3.653136,-3.65313 0,-2.01757 1.635565,-3.65314 3.653136,-3.65314 2.017572,0 3.653137,1.63557 3.653137,3.65314 z"
         transform="matrix(0.99996263,0,0,1,121.53737,-37.12401)" /><path
         style="fill:#f2b701;fill-opacity:1;stroke:#000000;stroke-width:0.300006;stroke-linecap:round;stroke-miterlimit:0;stroke-dasharray:none;stroke-opacity:1"
         id="path77-7-6-9"
         d="m 46.697106,137.50022 c 0,2.01757 -1.635565,3.65313 -3.653137,3.65313 -2.017571,0 -3.653136,-1.63556 -3.653136,-3.65313 0,-2.01757 1.635565,-3.65314 3.653136,-3.65314 2.017572,0 3.653137,1.63557 3.653137,3.65314 z"
         transform="matrix(0.99996263,0,0,1,130.16624,-37.12401)" /><path
         style="fill:none;fill-opacity:1;stroke:#000000;stroke-width:0.300006;stroke-linecap:round;stroke-miterlimit:0;stroke-dasharray:none;stroke-opacity:1"
         id="path78-9-9-6"
         d="m 46.697106,137.50022 c 0,2.01757 -1.635565,3.65313 -3.653137,3.65313 -2.017571,0 -3.653136,-1.63556 -3.653136,-3.65313 0,-2.01757 1.635565,-3.65314 3.653136,-3.65314 2.017572,0 3.653137,1.63557 3.653137,3.65314 z"
         transform="matrix(0.99996263,0,0,1,104.27964,-28.494824)" /><path
         style="display:inline;fill:none;stroke:#000000;stroke-width:0.864998;stroke-linecap:butt;stroke-linejoin:miter;stroke-dasharray:none;stroke-opacity:1"
         d="m 141.66182,86.227821 37.82735,37.827329"
         id="path114-3-8-1-4"
         inkscape:label="diagonal" /><path
         transform="matrix(0.99996263,0,0,1,112.90851,-28.494824)"
         style="fill:none;fill-opacity:1;stroke:#000000;stroke-width:0.300006;stroke-linecap:round;stroke-miterlimit:0;stroke-dasharray:none;stroke-opacity:1"
         id="path1"
         d="m 46.697106,137.50022 c 0,2.01757 -1.635565,3.65313 -3.653137,3.65313 -2.017571,0 -3.653136,-1.63556 -3.653136,-3.65313 0,-2.01757 1.635565,-3.65314 3.653136,-3.65314 2.017572,0 3.653137,1.63557 3.653137,3.65314 z" /><path
         transform="matrix(0.99996263,0,0,1,121.53737,-28.494824)"
         style="fill:#000000;fill-opacity:1;stroke:#000000;stroke-width:0.300006;stroke-linecap:round;stroke-miterlimit:0;stroke-dasharray:none;stroke-opacity:1"
         id="path2"
         d="m 46.697106,137.50022 c 0,2.01757 -1.635565,3.65313 -3.653137,3.65313 -2.017571,0 -3.653136,-1.63556 -3.653136,-3.65313 0,-2.01757 1.635565,-3.65314 3.653136,-3.65314 2.017572,0 3.653137,1.63557 3.653137,3.65314 z" /><path
         transform="matrix(0.99996263,0,0,1,130.16624,-28.494824)"
         style="fill:none;fill-opacity:1;stroke:#000000;stroke-width:0.300006;stroke-linecap:round;stroke-miterlimit:0;stroke-dasharray:none;stroke-opacity:1"
         id="path3"
         d="m 46.697106,137.50022 c 0,2.01757 -1.635565,3.65313 -3.653137,3.65313 -2.017571,0 -3.653136,-1.63556 -3.653136,-3.65313 0,-2.01757 1.635565,-3.65314 3.653136,-3.65314 2.017572,0 3.653137,1.63557 3.653137,3.65314 z" /><path
         transform="matrix(0.99996263,0,0,1,104.27964,-19.865637)"
         style="fill:none;fill-opacity:1;stroke:#000000;stroke-width:0.300006;stroke-linecap:round;stroke-miterlimit:0;stroke-dasharray:none;stroke-opacity:1"
         id="path4"
         d="m 46.697106,137.50022 c 0,2.01757 -1.635565,3.65313 -3.653137,3.65313 -2.017571,0 -3.653136,-1.63556 -3.653136,-3.65313 0,-2.01757 1.635565,-3.65314 3.653136,-3.65314 2.017572,0 3.653137,1.63557 3.653137,3.65314 z" /><path
         transform="matrix(0.99996263,0,0,1,112.90851,-19.865637)"
         style="fill:#f2b701;fill-opacity:1;stroke:#000000;stroke-width:0.300006;stroke-linecap:round;stroke-miterlimit:0;stroke-dasharray:none;stroke-opacity:1"
         id="path5"
         d="m 46.697106,137.50022 c 0,2.01757 -1.635565,3.65313 -3.653137,3.65313 -2.017571,0 -3.653136,-1.63556 -3.653136,-3.65313 0,-2.01757 1.635565,-3.65314 3.653136,-3.65314 2.017572,0 3.653137,1.63557 3.653137,3.65314 z" /><path
         transform="matrix(0.99996263,0,0,1,121.53737,-19.865637)"
         style="fill:none;fill-opacity:1;stroke:#000000;stroke-width:0.300006;stroke-linecap:round;stroke-miterlimit:0;stroke-dasharray:none;stroke-opacity:1"
         id="path6"
         d="m 46.697106,137.50022 c 0,2.01757 -1.635565,3.65313 -3.653137,3.65313 -2.017571,0 -3.653136,-1.63556 -3.653136,-3.65313 0,-2.01757 1.635565,-3.65314 3.653136,-3.65314 2.017572,0 3.653137,1.63557 3.653137,3.65314 z" /><path
         transform="matrix(0.99996263,0,0,1,130.16624,-19.865637)"
         style="fill:#000000;fill-opacity:1;stroke:#000000;stroke-width:0.300006;stroke-linecap:round;stroke-miterlimit:0;stroke-dasharray:none;stroke-opacity:1"
         id="path7"
         d="m 46.697106,137.50022 c 0,2.01757 -1.635565,3.65313 -3.653137,3.65313 -2.017571,0 -3.653136,-1.63556 -3.653136,-3.65313 0,-2.01757 1.635565,-3.65314 3.653136,-3.65314 2.017572,0 3.653137,1.63557 3.653137,3.65314 z" /></g><g
       id="g2"
       transform="translate(1.097509,-121.38261)"
       style="display:inline;fill:#000000;fill-opacity:1"
       inkscape:label="numbers"><text
         xml:space="preserve"
         style="font-size:7.05556px;line-height:1.25;font-family:'Courier New';-inkscape-font-specification:'Courier New';letter-spacing:-1.05833px;fill:#000000;fill-opacity:1;stroke-width:0.264583"
         x="95.915016"
         y="197.90582"
         id="text1-6-9"><tspan
           sodipodi:role="line"
           id="tspan1-3-0"
           style="letter-spacing:-1.05833px;fill:#000000;fill-opacity:1;stroke-width:0.264583"
           x="95.915016"
           y="197.90582">2</tspan></text><text
         xml:space="preserve"
         style="font-size:7.05556px;line-height:1.25;font-family:'Courier New';-inkscape-font-specification:'Courier New';letter-spacing:-1.05833px;display:inline;fill:#000000;fill-opacity:1;stroke-width:0.264583"
         x="87.065422"
         y="206.64291"
         id="text1-6-9-6"><tspan
           sodipodi:role="line"
           id="tspan1-3-0-9"
           style="letter-spacing:-1.05833px;fill:#000000;fill-opacity:1;stroke-width:0.264583"
           x="87.065422"
           y="206.64291">7</tspan></text><text
         xml:space="preserve"
         style="font-size:7.05556px;line-height:1.25;font-family:'Courier New';-inkscape-font-specification:'Courier New';letter-spacing:-1.05833px;display:inline;fill:#000000;fill-opacity:1;stroke-width:0.264583"
         x="104.22924"
         y="206.59184"
         id="text1-6-9-72-0-0-1-07"><tspan
           sodipodi:role="line"
           id="tspan1-3-0-1-0-0-3-2"
           style="letter-spacing:-1.05833px;fill:#000000;fill-opacity:1;stroke-width:0.264583"
           x="104.22924"
           y="206.59184">9</tspan></text><text
         xml:space="preserve"
         style="font-size:7.05556px;line-height:1.25;font-family:'Courier New';-inkscape-font-specification:'Courier New';letter-spacing:-1.05833px;fill:#000000;fill-opacity:1;stroke-width:0.264583"
         x="104.55298"
         y="198.00319"
         id="text1-6-9-7"><tspan
           sodipodi:role="line"
           id="tspan1-3-0-4"
           style="letter-spacing:-1.05833px;fill:#000000;fill-opacity:1;stroke-width:0.264583"
           x="104.55298"
           y="198.00319">3</tspan></text><text
         xml:space="preserve"
         style="font-size:7.05556px;line-height:1.25;font-family:'Courier New';-inkscape-font-specification:'Courier New';letter-spacing:-1.05833px;display:inline;fill:#000000;fill-opacity:1;stroke-width:0.264583"
         x="98.498177"
         y="195.83929"
         id="text1-6-9-72"
         transform="translate(14.317113,1.9870684)"><tspan
           sodipodi:role="line"
           id="tspan1-3-0-1"
           style="letter-spacing:-1.05833px;fill:#000000;fill-opacity:1;stroke-width:0.264583"
           x="98.498177"
           y="195.83929">4</tspan></text><text
         xml:space="preserve"
         style="font-size:7.05556px;line-height:1.25;font-family:'Courier New';-inkscape-font-specification:'Courier New';letter-spacing:-1.05833px;display:inline;fill:#000000;fill-opacity:1;stroke-width:0.264583"
         x="121.72565"
         y="197.93745"
         id="text1-6-9-72-0"><tspan
           sodipodi:role="line"
           id="tspan1-3-0-1-0"
           style="letter-spacing:-1.05833px;fill:#000000;fill-opacity:1;stroke-width:0.264583"
           x="121.72565"
           y="197.93745">5</tspan></text><text
         xml:space="preserve"
         style="font-size:7.05556px;line-height:1.25;font-family:'Courier New';-inkscape-font-specification:'Courier New';letter-spacing:-1.05833px;display:inline;fill:#000000;fill-opacity:1;stroke-width:0.264583"
         x="151.2263"
         y="241.15421"
         id="text1-6-9-72-0-0"><tspan
           sodipodi:role="line"
           id="tspan1-3-0-1-0-0"
           style="letter-spacing:-1.05833px;fill:#000000;fill-opacity:1;stroke-width:0.264583"
           x="151.2263"
           y="241.15421">50</tspan></text><text
         xml:space="preserve"
         style="font-size:7.05556px;line-height:1.25;font-family:'Courier New';-inkscape-font-specification:'Courier New';letter-spacing:-1.05833px;display:inline;fill:#000000;fill-opacity:1;stroke-width:0.264583"
         x="159.86887"
         y="241.03246"
         id="text1-6-9-72-0-0-1"><tspan
           sodipodi:role="line"
           id="tspan1-3-0-1-0-0-3"
           style="letter-spacing:-1.05833px;fill:#000000;fill-opacity:1;stroke-width:0.264583"
           x="159.86887"
           y="241.03246">51</tspan></text><text
         xml:space="preserve"
         style="font-size:7.05556px;line-height:1.25;font-family:'Courier New';-inkscape-font-specification:'Courier New';letter-spacing:-1.05833px;display:inline;fill:#000000;fill-opacity:1;stroke-width:0.264583"
         x="142.4377"
         y="241.07108"
         id="text1-6-9-72-0-0-1-2"><tspan
           sodipodi:role="line"
           id="tspan1-3-0-1-0-0-3-0"
           style="letter-spacing:-1.05833px;fill:#000000;fill-opacity:1;stroke-width:0.264583"
           x="142.4377"
           y="241.07108">49</tspan></text><text
         xml:space="preserve"
         style="font-size:7.05556px;line-height:1.25;font-family:'Courier New';-inkscape-font-specification:'Courier New';letter-spacing:-1.05833px;display:inline;fill:#000000;fill-opacity:1;stroke-width:0.264583"
         x="168.29602"
         y="232.46271"
         id="text1-6-9-72-0-0-1-0"><tspan
           sodipodi:role="line"
           id="tspan1-3-0-1-0-0-3-6"
           style="letter-spacing:-1.05833px;fill:#000000;fill-opacity:1;stroke-width:0.264583"
           x="168.29602"
           y="232.46271">48</tspan></text><text
         xml:space="preserve"
         style="font-size:7.05556px;line-height:1.25;font-family:'Courier New';-inkscape-font-specification:'Courier New';letter-spacing:-1.05833px;display:inline;fill:#000000;fill-opacity:1;stroke-width:0.264583"
         x="168.28941"
         y="223.61456"
         id="text1-6-9-72-0-0-7"><tspan
           sodipodi:role="line"
           id="tspan1-3-0-1-0-0-1"
           style="letter-spacing:-1.05833px;fill:#000000;fill-opacity:1;stroke-width:0.264583"
           x="168.28941"
           y="223.61456">44</tspan></text><text
         xml:space="preserve"
         style="font-size:7.05556px;line-height:1.25;font-family:'Courier New';-inkscape-font-specification:'Courier New';letter-spacing:-1.05833px;display:inline;fill:#000000;fill-opacity:1;stroke-width:0.264583"
         x="129.99858"
         y="197.87915"
         id="text1-6-9-72-5"><tspan
           sodipodi:role="line"
           id="tspan1-3-0-1-7"
           style="letter-spacing:-1.05833px;fill:#000000;fill-opacity:1;stroke-width:0.264583"
           x="129.99858"
           y="197.87915">6</tspan></text><text
         xml:space="preserve"
         style="display:inline;font-size:7.05556px;line-height:1.25;font-family:'Courier New';-inkscape-font-specification:'Courier New';fill:#ffffff;fill-opacity:1;stroke-width:0.264583"
         x="96.880188"
         y="85.239388"
         id="text1-4"
         inkscape:label="text1-4"
         transform="translate(-1.097509,121.38261)"><tspan
           sodipodi:role="line"
           id="tspan1-1"
           style="fill:#ffffff;fill-opacity:1;stroke-width:0.264583"
           x="96.880188"
           y="85.239388">8</tspan></text><text
         xml:space="preserve"
         style="font-size:7.05556px;line-height:1.25;font-family:'Courier New';-inkscape-font-specification:'Courier New';letter-spacing:-1.05833px;display:inline;fill:#ffffff;fill-opacity:1;stroke-width:0.264583"
         x="168.55569"
         y="240.99295"
         id="text1-4-2"
         inkscape:label="text1-4"><tspan
           sodipodi:role="line"
           id="tspan1-1-6"
           style="letter-spacing:-1.05833px;fill:#ffffff;fill-opacity:1;stroke-width:0.264583"
           x="168.55569"
           y="240.99295">52</tspan></text><text
         xml:space="preserve"
         style="font-size:7.05556px;line-height:1.25;font-family:'Courier New';-inkscape-font-specification:'Courier New';letter-spacing:-1.05833px;display:inline;fill:#ffffff;fill-opacity:1;stroke-width:0.264583"
         x="159.82321"
         y="232.29965"
         id="text1-4-2-2"
         inkscape:label="text1-4"><tspan
           sodipodi:role="line"
           id="tspan1-1-6-3"
           style="letter-spacing:-1.05833px;fill:#ffffff;fill-opacity:1;stroke-width:0.264583"
           x="159.82321"
           y="232.29965">47</tspan></text><text
         xml:space="preserve"
         style="display:inline;font-size:7.05556px;line-height:1.25;font-family:'Courier New';-inkscape-font-specification:'Courier New';fill:#ffffff;fill-opacity:1;stroke-width:0.264583"
         x="88.266312"
         y="76.610115"
         id="text1"
         transform="translate(-1.097509,121.38261)"><tspan
           sodipodi:role="line"
           id="tspan1"
           style="fill:#ffffff;fill-opacity:1;stroke-width:0.264583"
           x="88.266312"
           y="76.610115">1</tspan></text><text
         xml:space="preserve"
         style="font-size:7.05556px;line-height:1.25;font-family:'Courier New';-inkscape-font-specification:'Courier New';letter-spacing:-1.05833px;display:inline;fill:#000000;fill-opacity:1;stroke-width:0.264583"
         x="85.692444"
         y="232.46872"
         id="text1-6-9-6-1"><tspan
           sodipodi:role="line"
           id="tspan1-3-0-9-1"
           style="letter-spacing:-1.05833px;fill:#000000;fill-opacity:1;stroke-width:0.264583"
           x="85.692444"
           y="232.46872">23</tspan></text><text
         xml:space="preserve"
         style="font-size:2.82222px;line-height:1.25;font-family:'Courier New';-inkscape-font-specification:'Courier New';stroke-width:0.264583"
         x="112.69058"
         y="204.56029"
         id="text7"><tspan
           sodipodi:role="line"
           id="tspan7"
           style="font-size:2.82222px;stroke-width:0.264583"
           x="112.69058"
           y="204.56029">...</tspan></text><text
         xml:space="preserve"
         style="font-size:2.82222px;line-height:1.25;font-family:'Courier New';-inkscape-font-specification:'Courier New';display:inline;fill:#000000;fill-opacity:1;stroke-width:0.264583"
         x="160.98596"
         y="221.66264"
         id="text7-6"><tspan
           sodipodi:role="line"
           id="tspan7-2"
           style="font-size:2.82222px;stroke-width:0.264583"
           x="160.98596"
           y="221.66264">...</tspan></text></g></g></svg>
